<svg width="414" height="68" viewBox="0 0 414 68" fill="none" xmlns="http://www.w3.org/2000/svg">
<path d="M62.1929 1.30769V66.6923H43.7031V41.1923H18.4898V66.6923H0V1.30769H18.4898V25.8736H43.7031V1.30769H62.1929Z" fill="url(#paint0_linear)"/>
<path d="M131.452 61.7418C128.09 63.6722 124.012 65.1978 119.218 66.3187C114.425 67.4396 109.444 68 104.277 68C97.3046 68 91.3592 67.1593 86.441 65.478C81.5851 63.7967 77.9121 61.4615 75.4219 58.4725C72.9939 55.4835 71.78 52.0275 71.78 48.1044C71.78 44.6795 72.7138 41.6593 74.5814 39.044C76.4491 36.4286 79.0327 34.4048 82.3322 32.9725C79.7797 31.6648 77.8187 29.859 76.4491 27.5549C75.1417 25.1886 74.4881 22.6044 74.4881 19.8022C74.4881 16.1905 75.6087 12.8901 77.8498 9.9011C80.1533 6.91209 83.6396 4.51465 88.3087 2.70879C92.9778 0.902929 98.7364 0 105.585 0C109.88 0 114.113 0.404762 118.285 1.21429C122.456 2.02381 126.129 3.11355 129.304 4.48352L124.261 18.3077C118.471 15.7546 112.495 14.478 106.332 14.478C101.911 14.478 98.6119 15.0696 96.433 16.2527C94.2541 17.3736 93.1646 18.9615 93.1646 21.0165C93.1646 24.7527 95.8727 26.6209 101.289 26.6209H119.779V40.7253H100.075C96.8999 40.7253 94.5031 41.2546 92.8845 42.3132C91.2658 43.3095 90.4565 44.804 90.4565 46.7967C90.4565 48.9139 91.6394 50.5641 94.0051 51.7473C96.3707 52.9304 100.044 53.522 105.024 53.522C108.573 53.522 112.215 53.0549 115.95 52.1209C119.748 51.1245 123.047 49.7857 125.849 48.1044L131.452 61.7418Z" fill="url(#paint1_linear)"/>
<path d="M175.964 0C183.746 0 189.784 2.49084 194.08 7.47253C198.376 12.3919 200.523 19.4286 200.523 28.5824V66.6923H182.034V29.1429C182.034 24.5348 180.975 21.0788 178.859 18.7747C176.804 16.4707 173.909 15.3187 170.174 15.3187C166.314 15.3187 163.201 16.5641 160.836 19.0549C158.47 21.4835 157.287 25.1575 157.287 30.0769V66.6923H138.797V1.30769H156.727V8.78022C161.147 2.92674 167.559 0 175.964 0Z" fill="url(#paint2_linear)"/>
<path d="M213.029 1.30769H243.939C251.098 1.30769 257.448 2.64652 262.989 5.32418C268.53 8.00183 272.825 11.8004 275.876 16.7198C278.926 21.6392 280.452 27.3993 280.452 34C280.452 40.6007 278.926 46.3608 275.876 51.2802C272.825 56.1996 268.53 59.9982 262.989 62.6758C257.448 65.3535 251.098 66.6923 243.939 66.6923H213.029V1.30769ZM243.192 51.9341C248.795 51.9341 253.277 50.3462 256.639 47.1703C260.063 43.9945 261.775 39.6044 261.775 34C261.775 28.3956 260.063 24.0055 256.639 20.8297C253.277 17.6538 248.795 16.0659 243.192 16.0659H231.519V51.9341H243.192Z" fill="url(#paint3_linear)"/>
<path d="M320.716 0C326.879 0 332.295 1.24542 336.964 3.73627C341.696 6.16483 345.338 9.74542 347.89 14.478C350.505 19.1484 351.812 24.7839 351.812 31.3846V66.6923H333.322V52.2143H307.829V66.6923H289.619V31.3846C289.619 24.7839 290.895 19.1484 293.448 14.478C296.063 9.74542 299.705 6.16483 304.374 3.73627C309.105 1.24542 314.552 0 320.716 0ZM333.322 37.9231V29.7967C333.322 25.0018 332.171 21.3901 329.867 18.9615C327.564 16.533 324.482 15.3187 320.622 15.3187C316.7 15.3187 313.588 16.533 311.284 18.9615C308.981 21.3901 307.829 25.0018 307.829 29.7967V37.9231H333.322Z" fill="url(#paint4_linear)"/>
<path d="M364.32 1.30769H382.81V52.0275H414V66.6923H364.32V1.30769Z" fill="url(#paint5_linear)"/>
<defs>
<linearGradient id="paint0_linear" x1="207" y1="0" x2="207" y2="68" gradientUnits="userSpaceOnUse">
<stop stop-color="#13131F"/>
<stop offset="1" stop-color="#1B1B28" stop-opacity="0"/>
</linearGradient>
<linearGradient id="paint1_linear" x1="207" y1="0" x2="207" y2="68" gradientUnits="userSpaceOnUse">
<stop stop-color="#13131F"/>
<stop offset="1" stop-color="#1B1B28" stop-opacity="0"/>
</linearGradient>
<linearGradient id="paint2_linear" x1="207" y1="0" x2="207" y2="68" gradientUnits="userSpaceOnUse">
<stop stop-color="#13131F"/>
<stop offset="1" stop-color="#1B1B28" stop-opacity="0"/>
</linearGradient>
<linearGradient id="paint3_linear" x1="207" y1="0" x2="207" y2="68" gradientUnits="userSpaceOnUse">
<stop stop-color="#13131F"/>
<stop offset="1" stop-color="#1B1B28" stop-opacity="0"/>
</linearGradient>
<linearGradient id="paint4_linear" x1="207" y1="0" x2="207" y2="68" gradientUnits="userSpaceOnUse">
<stop stop-color="#13131F"/>
<stop offset="1" stop-color="#1B1B28" stop-opacity="0"/>
</linearGradient>
<linearGradient id="paint5_linear" x1="207" y1="0" x2="207" y2="68" gradientUnits="userSpaceOnUse">
<stop stop-color="#13131F"/>
<stop offset="1" stop-color="#1B1B28" stop-opacity="0"/>
</linearGradient>
</defs>
</svg>
