<svg width="120" height="20" viewBox="0 0 120 20" fill="none" xmlns="http://www.w3.org/2000/svg">
<path d="M18.0269 0.378944V19.3262H12.6676V11.9368H5.35936V19.3262H0V0.378944H5.35936V7.49769H12.6676V0.378944H18.0269Z" fill="white"/>
<path d="M38.1019 17.8916C37.1275 18.451 35.9455 18.8931 34.5561 19.2179C33.1666 19.5427 31.723 19.7051 30.2253 19.7051C28.2042 19.7051 26.4809 19.4615 25.0554 18.9743C23.6479 18.4871 22.5832 17.8104 21.8614 16.9442C21.1577 16.0781 20.8058 15.0766 20.8058 13.9397C20.8058 12.9473 21.0765 12.0721 21.6178 11.3142C22.1592 10.5563 22.908 9.96985 23.8644 9.55481C23.1246 9.17587 22.5561 8.65256 22.1592 7.9849C21.7802 7.29919 21.5907 6.55033 21.5907 5.7383C21.5907 4.69169 21.9156 3.73531 22.5652 2.86915C23.2328 2.00299 24.2434 1.30826 25.5967 0.784956C26.9501 0.261652 28.6193 0 30.6042 0C31.8493 0 33.0764 0.117292 34.2854 0.351877C35.4944 0.586462 36.5591 0.902249 37.4793 1.29924L36.0177 5.30522C34.3395 4.56538 32.6072 4.19546 30.8207 4.19546C29.5396 4.19546 28.5832 4.36688 27.9516 4.70974C27.32 5.03455 27.0042 5.49469 27.0042 6.09018C27.0042 7.17288 27.7892 7.71423 29.3591 7.71423H34.7185V11.8014H29.0072C28.0869 11.8014 27.3922 11.9548 26.923 12.2616C26.4539 12.5503 26.2193 12.9834 26.2193 13.5608C26.2193 14.1743 26.5621 14.6525 27.2478 14.9954C27.9336 15.3382 28.9982 15.5097 30.4418 15.5097C31.4704 15.5097 32.526 15.3743 33.6087 15.1036C34.7094 14.8149 35.6658 14.427 36.4778 13.9397L38.1019 17.8916Z" fill="white"/>
<path d="M51.004 0C53.2596 0 55.01 0.721799 56.2551 2.1654C57.5002 3.59095 58.1227 5.63003 58.1227 8.28264V19.3262H52.7634V8.44505C52.7634 7.10972 52.4566 6.10822 51.8431 5.44056C51.2476 4.7729 50.4085 4.43906 49.3258 4.43906C48.207 4.43906 47.3048 4.79996 46.619 5.52176C45.9333 6.22552 45.5905 7.29017 45.5905 8.71572V19.3262H40.2311V0.378944H45.4281V2.54434C46.7093 0.848114 48.5679 0 51.004 0Z" fill="white"/>
<path d="M61.7476 0.378944H70.707C72.7821 0.378944 74.6227 0.766912 76.2287 1.54285C77.8347 2.31878 79.0798 3.41952 79.964 4.84508C80.8483 6.27063 81.2904 7.93979 81.2904 9.85256C81.2904 11.7653 80.8483 13.4345 79.964 14.86C79.0798 16.2856 77.8347 17.3863 76.2287 18.1623C74.6227 18.9382 72.7821 19.3262 70.707 19.3262H61.7476V0.378944ZM70.4904 15.0495C72.1145 15.0495 73.4137 14.5894 74.3881 13.6691C75.3806 12.7488 75.8769 11.4766 75.8769 9.85256C75.8769 8.22851 75.3806 6.95634 74.3881 6.03604C73.4137 5.11575 72.1145 4.6556 70.4904 4.6556H67.107V15.0495H70.4904Z" fill="white"/>
<path d="M92.9611 0C94.7475 0 96.3174 0.3609 97.6708 1.0827C99.0422 1.78645 100.098 2.82404 100.838 4.19546C101.596 5.54883 101.975 7.1819 101.975 9.09467V19.3262H96.6152V15.1307H89.2258V19.3262H83.9476V9.09467C83.9476 7.1819 84.3175 5.54883 85.0574 4.19546C85.8153 2.82404 86.8709 1.78645 88.2243 1.0827C89.5957 0.3609 91.1746 0 92.9611 0ZM96.6152 10.9894V8.63452C96.6152 7.24506 96.2814 6.19845 95.6137 5.49469C94.946 4.79094 94.0528 4.43906 92.934 4.43906C91.7972 4.43906 90.8949 4.79094 90.2273 5.49469C89.5596 6.19845 89.2258 7.24506 89.2258 8.63452V10.9894H96.6152Z" fill="white"/>
<path d="M105.6 0.378944H110.959V15.0766H120V19.3262H105.6V0.378944Z" fill="white"/>
</svg>
