<svg width="329" height="455" viewBox="0 0 329 455" fill="none" xmlns="http://www.w3.org/2000/svg">
<path fill-rule="evenodd" clip-rule="evenodd" d="M247.898 177.231C250.84 178.88 253.283 180.007 255.584 180.776L258.968 181.908L255.785 183.521C253.623 184.616 251.568 186.013 249.501 187.793L247.906 189.166L247.136 187.208C246.125 184.636 245.633 181.71 245.673 178.512L245.706 176.002L247.898 177.231ZM106.55 185.538C109.303 190.506 112.628 195.398 115.843 200.129C122.938 210.57 130.276 221.366 132.535 234.277C132.711 235.347 132.836 237.767 132.912 241.535L130.808 240.678C123.785 237.818 116.333 235.69 109.127 233.633C106.342 232.838 103.462 232.016 100.639 231.16C99.4899 230.853 98.3467 230.494 97.2406 230.146C94.5572 229.302 92.0222 228.505 89.357 228.37L88.5456 228.328L88.1397 227.625C84.4677 221.266 87.2215 215.205 90.3748 209.541C92.2689 205.412 94.7051 201.533 97.0617 197.78C99.5041 193.891 102.03 189.87 103.875 185.662L105.087 182.898L106.55 185.538ZM242.075 238.213C237.901 242.588 234.023 247.032 230.55 251.424L227.913 250.212C229.188 243.725 233.146 239.155 240.369 235.83L242.075 238.213ZM102.422 335.934C102.84 335.934 103.232 336.096 103.526 336.39C103.824 336.688 103.987 337.09 103.986 337.522L102.422 337.517V335.934ZM276.134 444.084C278.586 439.875 278.947 433.266 275.271 429.683C276.507 421.946 274.078 413.298 268.7 407.138L268.687 407.157C260.701 395.191 260.114 390.928 265.949 377.553C276.377 377.154 287.119 377.035 297.301 374.598L296.92 372.321C297.297 372.221 299.222 371.716 299.636 371.609C299.581 372.033 299.294 373.966 299.3 374.353C299.776 374.873 300.926 375.357 301.14 374.332C307.545 346.942 313.278 320.095 319.507 292.746C326.026 265.143 339.136 220.994 307.044 205.781L307.707 202.953C309.479 202.953 310.191 201.021 311.003 198.292C314.624 188.527 307.584 178.953 300.999 172.914C292 163.9 283.697 153.893 275.666 144.218C252.755 116.352 221.582 79.1663 181.734 85.4838L181.868 87.1253C175.635 87.9093 169.126 89.5582 162.815 88.4097C141.266 84.6751 117.822 93.1238 104.569 110.471L104.082 107.238C104.037 106.933 103.928 106.65 103.445 106.65C102.813 106.628 102.48 107.145 102.246 107.622C79.3715 116.667 69.896 146.111 62.5861 166.292C61.653 169.703 61.9161 170.713 61.9975 170.913L63.3248 171.705C49.5389 190.054 41.9632 212.126 35.4642 233.053C33.3162 238.632 33.0922 242.498 36.6796 245.872C13.0253 260.093 -5.53597 282.256 4.95855 307.523C18.6551 332.108 54.923 347.707 82.1641 361.829C92.9817 367.692 108.716 370.815 118.67 380.418C119.335 381.401 120.289 382.359 120.867 382.28C125.487 382.964 132.363 354.092 131.318 351.78C136.195 353.525 141.62 353.432 146.721 354.342C146.264 355.347 144.768 356.707 145.887 357.825C145.812 361.216 146.333 364.881 147.079 368.338C140.957 367.356 141.096 370.569 146.986 368.869C147.146 370.366 147.554 374.184 147.71 375.631C145.952 374.858 142.453 374.315 141.228 375.525C141.729 377.136 146.064 375.619 147.734 376.096C148.711 383.345 149.03 390.471 149.715 397.7C144.504 402.667 136.363 403.841 131.711 409.214C127.771 413.303 128.339 420.165 132.962 423.455C130.13 426.777 132.397 432.293 136.531 433.195C142.164 434.51 148.052 432.691 153.606 431.163C162.838 428.121 172.507 423.379 183.163 416.666C187.378 414.039 190.518 409.911 192.01 405.04C202.821 371.703 205.71 349.05 200.607 337.68C197.695 335.479 194.449 336.838 191.76 335.636C190.479 335.063 189.324 334.292 188.392 331.56C202.418 330.182 222.864 332.743 234.107 326.018L233.711 325.176C234.75 324.513 237.031 321.74 237.899 320.848C236.334 339.675 235.077 358.988 234.455 377.749C232.392 381.22 230.641 384.812 228.719 388.82C227.382 390.133 225.042 392.385 226.415 393.875C226.415 393.875 214.871 420.921 211.343 434.593C207.984 434.735 206.622 440.427 206.75 444.208C207.261 451.089 216.087 451.819 223.825 452.494C229.119 453.05 234.563 453.337 239.925 453.337C249.615 453.345 273.841 452.678 276.134 444.084Z" fill="#13131F"/>
<path fill-rule="evenodd" clip-rule="evenodd" d="M228.97 95.4746C212.524 84.547 191.172 78.7931 172.099 85.9483C171.872 86.0279 171.962 86.3585 172.199 86.3063C175.212 85.645 178.274 85.2746 181.353 85.1479C175.113 85.91 169.057 87.5473 162.738 86.4438C141.631 82.9578 119.249 90.1185 105.225 106.519C104.863 104.109 101.868 104.199 100.892 105.903C82.242 112.472 71.679 137.15 64.6345 154.276C63.8069 157.329 58.0591 170.005 60.8194 171.651C47.6813 189.648 40.289 210.959 33.7296 232.039L33.5419 232.551C32.0529 236.677 30.9167 241.346 34.0703 245.018C20.9882 253.015 8.89257 263.758 3.17464 278.314C-5.93228 299.786 5.67232 317.978 23.7657 329.611C41.697 342.593 61.1233 353.402 81.2041 362.684C87.9567 365.801 94.7939 368.727 101.671 371.561L102.355 371.841C107.757 374.062 113.208 376.673 117.249 380.946C125.107 392.412 132.365 358.066 132.444 353.28C136.129 354.387 140.187 354.412 143.991 354.99C143.508 355.818 143.471 356.894 144.058 357.777C144.05 360.579 144.346 363.403 144.895 366.179C139.057 365.662 139.259 371.549 145.345 370.191L145.649 373.038C142.87 372.177 137.001 373.552 140.439 376.864C142.239 377.753 144.157 376.933 146.077 377.028C146.904 383.534 147.219 390.045 147.824 396.58C142.609 401.111 134.869 402.312 130.24 407.751C126.194 412.173 126.094 419.091 130.725 423.254C128.237 427.5 131.244 433.031 135.844 434.147C141.774 435.556 147.984 433.679 153.705 432.094C164.111 428.669 173.958 423.491 183.223 417.684L183.625 417.431C188.209 414.574 191.527 410.128 193.104 404.979L193.441 403.936C199.041 386.549 209 352.447 201.529 336.338C198.009 332.439 192.335 336.98 190.284 332.386C203.518 331.35 224.842 333.654 235.625 326.094C234.566 341.302 232.996 356.5 233.059 371.753C233.327 373.758 231.972 375.013 232.516 377.038C230.548 380.402 228.848 383.909 227.162 387.419L227.056 387.519C225.305 389.176 223.055 392.539 225.358 394.511C217.519 405.985 213.267 419.526 209.792 432.844C206.096 433.691 204.7 440.564 204.929 443.849C205.966 452.678 216.444 452.735 223.33 453.48C227.352 453.902 231.386 454.166 235.429 454.275C243.607 454.497 251.796 454.064 259.907 453C266.515 452.421 273.821 450.695 277.112 444.302C279.765 439.713 280.179 432.826 276.509 428.708C277.582 420.82 275.067 412.599 270.152 406.38L270.003 406.193L270.015 406.188C270.128 406.138 270.118 405.952 269.658 405.859L269.607 405.85L269.386 405.508C262.165 394.328 261.265 391.263 266.623 378.512L271.491 378.338C280.513 378.008 289.629 377.533 298.36 375.293C299.597 376.322 301.772 376.203 302.258 374.184C308.609 347.038 314.436 319.766 320.629 292.58C327.065 263.97 340.933 220.538 307.372 203.948C310.8 203.948 311.564 199.84 312.397 197.248C315.451 187.174 308.721 177.866 301.682 171.325C276.972 146.549 258.381 115.335 228.97 95.4746ZM276.093 431.74C276.558 445.078 266.451 448.277 255.076 448.617C247.988 449.291 240.847 449.497 233.731 449.219L230.379 449.025C224.781 448.696 219.141 448.285 213.693 447.009C210.105 446.272 209.205 443.067 210.501 439.934C211.061 440.183 211.724 440.2 212.241 439.837C212.821 439.432 213.242 439.002 213.56 438.495C231.994 446.688 255.188 445.79 273.052 436.364C275.341 436.252 275.638 433.521 276.093 431.74ZM231.284 389.522C237.984 385.475 251.552 383.715 258.023 388.809C257.58 391.368 258.617 393.735 259.589 396.015C256.636 395.311 230.952 391.855 234.58 398.161C236.611 399.796 239.376 398.67 241.723 398.449C248.019 397.926 254.357 398.092 260.634 398.805C261.181 400.337 261.393 402.055 262.073 403.5C255.716 401.405 249.065 400.403 242.395 400.045L242.024 400.025C239.112 399.871 235.705 399.227 233.537 401.603C231.689 404.127 235.79 405.863 237.902 405.616C246.9 405.346 255.916 405.679 264.906 406.066L265.301 406.717C271.653 417.221 273.021 421.358 270.453 433.955C270.468 433.943 270.483 433.933 270.496 433.921C270.506 434.602 270.725 435.216 271.19 435.673C251.818 441.952 233.774 441.596 214.524 435.368C217.338 421.245 222.924 407.906 227.078 394.176C228.174 393.563 228.5 392.208 229.321 391.312C230.151 391.241 230.973 390.586 231.284 389.522ZM184.86 332.542C193.3 338.504 189.488 345.548 187.155 353.643C183.743 365.542 181.123 377.664 178.204 389.688C176.485 400.369 169.723 409.632 159.995 414.436C155.619 416.739 150.818 418.228 145.912 418.841C144.018 419.033 141.919 418.83 140.651 420.526C139.931 421.305 139.852 422.582 140.651 423.346C143.159 426.187 150.451 423.624 153.834 422.915C178.901 415.326 182.711 397.185 187.546 374.44C189.889 361.808 195.646 348.503 192.173 335.692C194.273 336.814 197.501 336.429 198.991 338.548C202.43 360.315 194.844 382.396 188.996 403.205C187.698 407.577 184.958 411.422 180.97 413.718C172.463 418.907 163.547 423.648 154.113 426.923L153.827 427.004C149.04 428.376 138.697 432.078 135.023 428.208C134.256 427.077 134.291 425.866 135.257 425.115L135.725 424.937C136.624 424.59 137.682 424.102 137.846 423.053L137.855 422.98L137.821 422.968C138.602 421.536 137.086 419.932 135.728 419.582C133.813 419.513 132.923 418.239 132.243 416.37C131.022 407.22 143.886 404.774 148.15 398.514C148.602 400.799 152.124 400.364 152.105 398.059C152.244 391.057 150.721 383.992 149.678 377.085C151.283 377.016 152.989 377.664 154.552 377.313C154.782 375.871 150.274 374.36 149.033 373.883C148.777 372.69 148.506 371.502 148.217 370.318C158.245 370.924 153.587 367.712 147.254 366.612C147.057 365.941 146.884 365.252 146.726 364.57L146.649 364.23C146.249 362.522 146.037 360.909 145.967 359.241C150.4 361.27 155.388 362.502 160.192 361.468C168.872 359.454 173.371 348.93 169.887 341.032C170.679 338.23 169.123 335.251 167.716 332.888C173.43 332.868 179.148 332.711 184.86 332.542ZM269.721 405.986C269.796 406.031 269.867 406.082 269.935 406.136L270.003 406.193L269.986 406.197C269.903 406.214 269.784 406.168 269.712 405.994C269.727 406.009 269.727 406.001 269.721 405.986ZM269.194 405.81C269.331 405.814 269.447 405.825 269.548 405.84L269.607 405.85L269.626 405.879C269.661 405.932 269.683 405.954 269.709 405.992C269.564 405.874 269.368 405.82 269.194 405.81ZM258.832 397.467C259.3 397.529 259.766 397.585 260.236 397.644L260.328 397.895C259.831 397.745 259.333 397.604 258.832 397.467ZM238.087 377.222C246.426 378.07 254.831 377.547 263.173 378.494C261.537 380.751 260.371 383.249 259.392 385.885C252.541 379.422 241.549 381.399 233.305 383.78C233.86 382.161 234.371 380.527 234.829 378.88C236.062 379.078 237.471 378.386 238.087 377.222ZM34.6801 245.808C46.0796 257.411 63.3083 260.601 78.0528 265.723C81.6327 267.963 79.8829 272.401 79.4267 275.771C78.573 281.303 77.8952 286.863 77.4032 292.439C75.5817 290.335 70.8099 290.06 68.1394 289.205L67.7837 289.125C64.2213 288.308 60.519 287.084 56.884 287.878C55.418 288.196 55.3187 290.222 56.4836 290.943C59.4341 292.773 63.044 292.826 66.4263 293.226L67.2913 293.33C70.2844 293.685 73.3009 294.01 76.3083 293.884C76.6866 293.943 77.0674 293.799 77.3063 293.543C76.9318 299.373 76.1806 305.286 76.4352 311.126C76.5743 312.163 76.9079 313.291 77.6449 314.059L77.6692 314.148C78.0862 315.623 79.4427 318.256 81.0047 316.307L81.2981 315.78C83.5921 311.645 85.7673 307.321 86.8762 302.704C87.2453 312.042 87.544 321.375 87.9168 330.71L87.929 330.934C88.0241 332.519 88.3341 334.425 89.3654 335.645C89.2743 336.369 89.9245 336.791 90.5051 336.532L90.5822 336.568C91.1388 336.817 92.0346 337.047 92.3746 336.368C94.3334 331.791 96.4192 327.287 98.3307 322.698C98.2297 325.053 98.3437 327.413 98.2685 329.77C98.2309 332.46 97.7306 335.622 99.0152 338.111C100.112 340.29 102.844 340.861 104.31 338.964C105.484 337.152 106.15 334.912 107.219 332.992C110.23 347.858 117.856 326.006 119.256 321.502C123.559 324.015 128.096 326.138 132.788 327.836C131.498 329.789 131.81 332.443 131.404 334.688C131.038 338.034 130.75 341.382 130.461 344.736L130.354 345.378C128.597 355.866 126.037 366.587 120.403 375.718C115.633 371.052 109.375 368.3 103.254 365.829C95.8838 362.793 88.5737 359.619 81.3634 356.226C61.873 347.071 43.1063 336.339 25.6128 323.777L25.0182 323.361C15.2965 316.527 5.16571 307.566 4.91691 294.816C4.07838 273.913 21.5764 259.654 34.6801 245.808ZM249.506 233.96C266.148 218.364 291.628 198.199 314.614 213.016C336.084 231.167 319.073 274.687 314.687 298.125C309.111 322.761 303.217 347.33 297.75 371.989C278.256 374.558 258.469 375.905 238.878 373.59C239.1 356.203 240.274 338.838 240.658 321.445C241.015 312.484 240.891 303.487 242.235 294.612C243.376 287.395 241.911 278.677 245.935 272.373C247.424 270.078 249.846 268.068 250.387 265.301C250.4 265.171 250.231 265.129 250.148 265.201C248.971 266.235 248.025 267.468 246.776 268.46L245.857 269.171C244.363 270.333 242.875 271.573 241.949 273.225C241.854 272.521 243.638 266.245 242.57 266.993L242.368 267.544C240.932 271.49 239.637 275.482 239.269 279.704C237.859 294.094 237.071 308.555 235.864 322.966C232.953 324.277 230.277 326.205 227.098 326.902C221.89 327.416 216.675 327.125 211.458 327.056L210.969 327.051C195.748 326.824 180.574 327.677 165.364 327.437C149.817 328.039 133.924 323.97 120.654 315.797C127.924 282.997 102.963 259.603 91.4213 231.564C104.716 234.914 117.947 238.512 131.205 242.042C129.416 246.412 135.203 258.796 137.381 263.184C149.033 286.133 172.597 301.131 193.788 279.229C193.778 279.296 193.771 279.363 193.763 279.433C194.474 278.784 195.261 278.213 196.053 277.665C197.117 286.392 199.996 295.189 205.429 302.196L206.022 302.939C207.716 305.05 210.17 307.826 212.883 306.231C214.881 305.152 215.257 303.051 214.869 300.931C221.397 308.028 228.509 309.631 224.049 297.419L224.196 297.572C226.693 300.133 233.32 305.793 233.995 299.101C233.701 295.77 231.646 292.796 230.602 289.675C231.718 290.363 232.972 290.704 234.249 290.214C237.673 288.902 235.911 284.989 235.147 282.526C233.213 276.298 231.24 270.081 229.233 263.876C229.928 260.187 227.726 256.517 229.791 253.311C230.674 253.773 231.864 253.676 232.718 252.538C237.726 245.875 243.473 239.703 249.506 233.96ZM297.519 373.12C297.513 373.157 297.513 373.19 297.511 373.227C297.319 373.239 297.13 373.257 296.939 373.274C297.134 373.227 297.326 373.17 297.519 373.12ZM133.119 349.168C136.191 317.572 128.22 332.452 160.592 332.811C160.447 333.602 161.488 333.511 161.12 333.291C161.589 331.545 164.247 336.661 164.617 337.325C165.316 338.807 165.635 340.651 165.881 342.272C167.616 351.349 161.151 359.302 151.724 355.442C152.938 355.341 154.301 355.78 155.308 355.005C155.303 355.002 155.301 354.997 155.296 354.993C156.198 353.379 151.252 353.309 150.268 352.877C146.435 352.077 142.592 351.333 138.782 350.436C136.925 349.998 135.023 349.312 133.119 349.168ZM101.997 336.96C102.273 336.798 102.131 337.328 102.039 337.059C102.027 337.024 102.009 336.992 101.997 336.96ZM67.1386 168.25C80.9938 169.238 89.9638 176.074 99.7965 184.841C100.531 185.475 101.275 186.096 102.037 186.698C97.7404 194.224 93.1084 201.55 88.6312 208.972L87.7921 210.368C86.4864 212.545 85.2113 214.761 84.434 217.186C81.786 225.556 91.0341 240.29 94.3947 248.508C110.476 276.86 125.582 296.543 110.95 330.123C110.164 328.004 111.899 320.607 109.304 320.319L109.357 319.793C110.186 311.257 110.223 300.976 107.635 293.439C109.067 308.024 107.515 323.309 101.982 336.925C100.534 324.017 102.452 309.597 102.007 296.337C102.024 294.299 98.9381 294.321 98.8507 296.337L98.7455 299.761C98.3839 311.363 97.7591 323.512 91.0057 333.328C90.3553 318.386 93.0832 302.648 87.8422 288.322C87.4138 287.291 85.8709 287.37 85.8261 288.596C85.7298 293.472 83.6654 309.978 80.104 312.841C79.1255 309.856 79.2253 306.589 79.3824 303.462C79.8672 292.129 81.503 281.071 83.5109 269.897C83.874 267.689 83.2236 264.971 80.9353 264.12C79.2353 262.504 76.8879 261.358 74.9465 260.438C62.6089 254.348 45.6361 255.521 37.2908 242.979L36.8859 242.369C35.9129 240.898 35.0008 239.446 34.5905 237.682C35.715 233.485 37.3319 229.395 38.7048 225.274C39.9321 221.634 41.1919 218.006 42.5132 214.399L42.956 213.198C48.8548 197.11 56.3648 181.668 67.1386 168.25ZM162.673 332.863C162.989 332.965 163.239 333.281 163.508 333.516L163.566 333.565L163.402 333.435C163.227 333.295 163.07 333.164 162.829 332.98L162.673 332.863ZM235.742 324.575L235.668 325.549C235.19 325.646 234.721 325.768 234.254 325.887C234.796 325.495 235.301 325.06 235.742 324.575ZM165.155 302.562C165.209 302.371 164.936 302.259 164.833 302.427C160.807 309.504 152.88 312.321 145.248 313.443C143.949 313.746 144.108 315.539 145.248 315.916C149.514 317.328 154.44 315.426 157.932 312.894C161.511 310.301 163.952 306.798 165.155 302.562ZM88.387 298.522C89.1427 303.969 89.074 309.525 89.1389 315.024C88.89 309.525 88.6835 304.021 88.387 298.522ZM199.557 308.115C198.766 308.389 197.947 308.568 197.141 308.637C197.997 309.045 198.975 308.841 199.557 308.115ZM261.645 131.965C273.749 145.655 284.345 160.64 297.364 173.505C304.992 180.391 312.209 189.803 306.26 200.167C305.005 200.661 304.785 202.507 305.867 203.376C305.608 203.343 303.948 202.539 304.321 203.197C307.656 204.619 310.588 206.68 313.115 209.173C297.374 197.607 276.503 206.867 262.775 217.233C256 222.177 249.7 227.626 243.801 233.491C241.691 233.868 239.508 234.994 237.749 235.874C225.613 241.697 223.712 249.566 224.713 262.143C228.355 269.078 230.078 277.008 232.616 284.442C235.226 290.222 230.091 286.327 229.355 283.806C227.568 281.584 226.706 278.632 225.611 276.05L225.532 275.866C225.221 275.127 224.554 274.578 223.695 274.824C223.006 275.021 222.367 275.873 222.634 276.611L223.184 278.025C225.846 284.859 228.597 291.73 230.717 298.734C223.553 294.448 220.007 286.337 216.246 279.174C215.213 277.27 212.433 278.948 213.364 280.857C214.227 282.62 215.108 284.377 216.042 286.105C218.481 291.297 220.25 296.775 221.714 302.316C213.662 297.519 210.856 287.747 208.54 279.5C208.397 277.148 205.001 277.61 205.352 279.92C206.213 284.504 207.527 289.021 209.583 293.22L210.126 296.394C210.488 298.511 210.847 300.629 211.188 302.748C210.994 302.654 210.785 302.641 210.584 302.691C203.45 295.516 200.595 285.617 198.104 276.102C199.288 272.078 197.839 267.963 198.004 263.814C197.374 258.502 199.09 253.552 201.465 248.809C202.888 234.138 217.036 227.774 226.899 219.15C238.98 207.225 245.332 188.966 262.312 183.056C264.077 183.168 265.779 182.79 267.432 182.221C267.504 182.201 267.516 182.077 267.432 182.064C265.751 181.79 264.071 181.361 262.386 181.055C261.932 179.576 260.117 179.395 258.752 180.056C244.07 173.628 231.9 162.326 220.233 151.572C231.625 141.045 246.375 134.51 261.645 131.965ZM194.084 281.183C193.84 281.454 193.626 281.747 193.467 282.068C193.423 282.15 193.428 282.248 193.414 282.339C193.624 281.946 193.845 281.558 194.084 281.183ZM240.66 236.687C236.604 240.938 232.71 245.368 229.044 250.002C230.359 243.314 234.665 239.448 240.66 236.687ZM104.909 185.763C113.716 201.653 127.505 215.612 130.73 234.037C130.988 235.613 131.006 237.21 131.038 238.8C121.207 234.797 110.857 232.302 100.715 229.229C96.871 228.203 93.1377 226.589 89.0991 226.383C85.7704 220.619 88.4438 214.976 91.374 209.718C95.1916 201.371 101.23 194.152 104.909 185.763ZM246.833 178.034C249.379 179.462 252.005 180.767 254.775 181.694C252.391 182.902 250.211 184.428 248.192 186.166C247.178 183.586 246.798 180.792 246.833 178.034ZM182.087 86.4331C183.409 98.0742 183.345 110.086 180.25 121.448C175.635 139.154 158.547 155.707 139.212 152.236C119.704 148.163 110.116 127.983 106.094 110.238C116.367 97.219 132.449 89.0749 149.023 88.4193C159.801 87.9793 171.984 91.4497 182.087 86.4331Z" fill="#06060F"/>
<path fill-rule="evenodd" clip-rule="evenodd" d="M136.891 1.87341C125.996 1.87341 112.924 7.14961 111.813 7.25513L111.783 7.25674C111.198 7.25674 108.913 8.99563 104.928 12.4734L109.245 20.8829L108.895 21.2161C107.224 22.8169 105.797 24.276 104.671 25.4263C95.4742 34.8179 93.8213 71.6924 95.9886 84.5517C98.1559 97.4111 102.17 109.994 120.859 109.994C139.547 109.994 160.339 98.7688 163.542 95.2731C165.677 92.9427 168.075 91.8262 170.737 91.9237C170.846 91.7858 170.955 91.6483 171.062 91.5112L171.454 91.4558C175.137 90.9229 177.777 90.2056 179.372 89.3041C182.487 87.5433 185.912 78.2865 185.912 76.2474C185.912 74.2286 191.025 59.5429 191.127 57.9888L191.129 57.9458C191.129 56.6466 197.809 50.6745 197.809 48.7778C197.809 46.8812 199.156 46.9962 197.809 40.3128L197.418 38.3494C195.985 31.2334 193.18 19.4505 182.487 14.3304C170.737 8.70402 147.896 1.87341 136.891 1.87341Z" fill="#13131F"/>
<path fill-rule="evenodd" clip-rule="evenodd" d="M184.301 14.0661C178.441 7.85226 145.17 -1.7591 128.338 0.278282L127.833 0.343601C126.489 0.513765 125.166 0.771442 123.859 1.12149C119.636 2.10674 115.274 3.5986 111.784 6.09053C108.871 8.12909 99.682 11.4582 102.39 16.7912C101.386 18.6919 101.011 21.0402 101.69 22.9122C101.775 23.5588 101.975 24.1544 102.23 24.7719C100.085 27.9347 98.3859 31.5116 97.0107 34.9136C94.6077 43.4756 93.1124 52.3858 92.8933 61.1213C92.1648 77.7177 93.9864 97.542 108.456 108.274C117.197 115.075 130.89 115.303 140.713 106.871C141.271 106.212 143.892 104.434 143.017 104.122C142.757 104.396 142.489 104.664 142.217 104.926C142.229 104.897 142.232 104.868 142.227 104.836L142.483 104.605C142.966 104.158 143.591 103.511 142.879 103.638C142.847 103.674 142.813 103.706 142.779 103.743C142.628 103.833 142.514 103.911 142.426 103.98L142.38 104.017L142.394 104.002C142.804 103.565 143.05 103.119 142.437 103.404L142.356 103.444C142.083 103.73 141.806 104.005 141.524 104.272C141.528 104.241 141.524 104.209 141.506 104.175L141.769 103.921C142.026 103.67 141.987 103.669 141.862 103.465C142.408 102.701 141.388 103.155 141.317 103.453C140.679 103.303 140.119 104.499 139.708 104.644C121.701 118.474 95.5687 106.203 95.9919 67.6668L95.9983 66.9128C96.1221 54.5907 97.1601 41.9257 102.262 30.7714C102.758 29.6969 103.313 28.6516 103.924 27.6403C104.345 26.8819 104.795 26.1429 105.279 25.4234C106.635 25.314 107.973 25.066 109.292 24.6819C109.745 24.5677 110.193 24.4413 110.64 24.293C117.181 24.6493 123.577 25.0371 130.136 25.4046L132.185 25.5321C137.742 25.889 143.488 26.4605 147.972 29.8938C152.372 33.0195 152.392 39.1831 156.158 42.6148C161.529 46.256 161.568 49.5395 162.602 54.9055C162.525 58.9505 159.718 64.8277 164.87 66.5301C164.001 67.7682 165.212 67.1733 165.308 66.7392C165.318 66.7416 165.327 66.744 165.335 66.744C164.56 68.1824 165.699 67.2766 165.799 66.8145C165.86 66.7975 165.921 66.7538 165.982 66.693C165.202 67.9532 166.463 67.0707 166.388 66.8413C167.896 64.5258 171 64.1663 173.188 64.7799C173.214 64.8625 173.311 64.8698 173.372 64.826C182.675 66.8398 180.275 86.0771 170.742 84.2175C170.334 84.1343 170.343 84.33 170.262 84.3487C170.483 83.7711 169.862 84.0062 169.868 84.1275L169.831 84.1257C169.801 84.123 169.813 84.1198 169.791 84.1275C170.003 82.9463 168.805 84.6577 168.9 84.7279C168.863 84.7061 168.822 84.6939 168.785 84.689L168.827 84.5769C169.025 84.0477 169.008 84.2677 169.007 83.9646C169.156 83.59 169.167 83.7539 169.132 83.5098C168.607 83.1034 168.452 84.3363 168.277 84.4265C168.577 84.0084 168.338 83.6669 168.055 83.8939C165.908 88.4052 163.135 92.644 159.551 95.9831C159.159 96.2918 158.762 96.5957 158.351 96.8825C156.826 98.2091 154.488 99.0621 153.061 100.237C153.061 100.257 153.07 100.281 153.085 100.305L153.052 100.335L153.019 100.366L152.522 100.604C152.376 100.728 152.245 100.867 152.129 101.02C152.004 101.163 151.895 101.321 151.802 101.489C151.756 101.693 151.858 101.778 152.053 101.691C152.138 101.662 152.223 101.628 152.308 101.596C152.303 101.603 152.301 101.608 152.296 101.613C152.268 101.655 152.079 102.093 152.297 102.022L152.323 102.012C152.442 101.968 152.561 101.919 152.678 101.873C152.54 102.046 152.413 102.233 152.301 102.391C152.182 102.515 152.109 102.661 152.08 102.826C152.085 102.918 152.136 102.957 152.228 102.945C152.369 102.899 152.508 102.85 152.647 102.799L152.607 102.875C152.509 103.068 152.37 103.391 152.617 103.283C152.829 103.217 153.034 103.142 153.238 103.059C153.255 103.094 153.289 103.106 153.357 103.074C154.007 102.843 154.635 102.561 155.236 102.228C155.764 101.844 156.297 101.467 156.827 101.086C157.326 100.787 157.808 100.454 158.268 100.079C161.345 98.0936 164.039 95.5713 166.177 92.7621C169.751 95.8545 176.898 92.9002 181.319 90.4795C185.229 88.316 186.766 84.3157 187.163 80.0027C187.99 74.1962 192.74 72.2087 192.409 59.4683C192.417 59.4707 192.424 59.4707 192.434 59.4707C192.607 59.4197 192.774 59.3516 192.932 59.2641C193.095 59.1863 193.249 59.094 193.393 58.9821L193.57 58.7366C193.662 58.6856 193.745 58.6321 193.808 58.5786L193.841 58.6209C193.945 58.7461 193.875 58.5577 193.869 58.5203L194.178 58.101C194.91 57.1031 195.712 55.9833 196.366 55.0878L196.387 55.1242C196.402 55.1517 196.409 55.1715 196.403 55.1802C197.959 52.9467 199.422 50.2488 199.829 47.637C200.309 45.6252 200.121 43.5521 199.703 41.6886C197.907 35.1628 192.025 20.3955 184.301 14.0661ZM142.069 104.315L142.167 104.228L142.081 104.335C142.036 104.391 141.99 104.44 141.915 104.491C141.92 104.474 141.92 104.457 141.918 104.438C141.967 104.4 142.018 104.358 142.069 104.315ZM128.412 3.55727C139.827 2.57688 151.054 5.08899 161.947 8.12982L162.698 8.34557C168.892 10.111 175.441 11.6997 180.675 15.4785C187.988 21.0737 191.764 29.9748 195.06 38.1929C197.937 44.2989 196.466 51.184 192.13 55.4476C191.678 51.2107 190.909 47.0979 189.707 43.0181C189.456 42.3807 189.646 42.1719 189.105 42.0887C188.289 53.0833 192.311 61.2064 184.351 74.2366C180.897 80.3849 184.895 84.8835 175.142 88.1188L174.878 88.2196C172.846 88.9855 170.627 89.5901 168.637 89.1619L168.815 88.8722C168.997 88.5738 169.052 88.429 168.788 88.3014C168.795 88.2868 168.805 88.2722 168.815 88.2552C169.029 87.8517 169.235 87.4433 169.433 87.03C169.513 87.0568 169.593 87.0762 169.676 87.0981C169.622 87.1978 169.615 87.2974 169.766 87.3315C170.302 87.5152 170.853 87.5889 171.417 87.5544L171.537 87.5454C172.174 87.5065 172.576 87.3905 172.935 87.2828C173.054 87.2634 173.173 87.2439 173.29 87.2196C174.445 86.9639 175.667 86.3134 176.458 85.6687C185.476 80.5521 184.544 63.1349 173.428 61.4884C173.2 50.5221 167.979 32.0209 159.313 21.5711C151.48 11.959 130.097 7.7929 115.22 9.2619C115.003 9.33361 114.786 9.40605 114.569 9.47922C112.274 9.68293 110.086 10.7044 107.789 11.1789C109.439 9.94426 111.309 9.12188 113.237 8.42299C117.076 6.07691 121.478 4.80749 125.73 3.91218C126.611 3.69583 127.504 3.57672 128.412 3.55727ZM173.937 70.298C173.339 69.9737 173.408 70.2868 173.27 70.1959C168.971 69.8456 164.336 73.6055 161.933 76.7399C162.123 76.9368 162.636 76.3534 162.726 76.261C162.738 76.2732 162.753 76.2829 162.767 76.2878L162.701 76.3821C161.727 77.7784 163.657 76.1354 163.838 75.7967C163.87 75.8138 163.901 75.8235 163.938 75.8162C163.785 75.9662 163.317 76.3573 163.237 76.6354L163.113 76.7384C161.945 77.7381 162.042 78.4902 163.368 77.0705C163.337 77.1362 163.325 77.1969 163.347 77.2456L163.301 77.276C162.649 77.7314 162.112 79.001 163.476 77.6977C163.334 78.6497 164.827 76.8097 164.875 76.8226C167.459 74.7964 171.263 72.8259 174.504 72.5612L174.616 72.5484C175.21 72.472 175.492 72.2958 175.283 71.9073C176.015 71.7332 175.844 71.373 175.497 71.3846C176.014 71.0453 175.548 70.7207 175.249 70.8474C175.455 70.2773 174.628 70.6571 174.553 70.5776C174.124 69.9166 174.008 70.4679 173.937 70.298ZM182.948 34.9647C180.883 34.2091 174.784 36.4709 175.272 39.4662C175.563 40.1539 176.52 40.548 177.193 40.1598L178.071 39.5706C179.599 38.5481 180.978 37.6516 182.619 36.7599C183.512 36.3172 183.896 35.3774 182.948 34.9647ZM171.201 30.5134L171.998 29.995C176.301 27.1815 182.385 22.9185 171.596 27.3291C170.366 27.8559 168.733 28.1675 168.062 29.3373C167.008 31.4933 169.781 31.6382 171.201 30.5134ZM170.717 17.8899C171.062 16.5808 166.766 18.1169 165.515 18.5219L165.324 18.5938C164.108 19.0467 162.713 19.4668 161.985 20.5157C161.132 21.9651 162.858 22.2653 163.927 21.6106C166.119 20.1798 168.522 19.1002 170.717 17.8899ZM159.791 11.7919C162.209 9.15358 155.737 11.681 154.767 12.3826L154.739 12.4033C154.016 12.9121 154.163 14.008 154.842 14.3298C156.776 14.3665 158.199 12.7563 159.791 11.7919ZM148.785 8.9013C152.63 6.14099 147.565 7.45393 145.806 8.53569C144.607 9.59192 145.842 11.375 148.785 8.9013Z" fill="#06060F"/>
<path fill-rule="evenodd" clip-rule="evenodd" d="M127.073 80.5345C125.711 78.2975 122.81 83.7773 122.502 84.7195C122.228 85.5542 122.048 86.4092 121.957 87.2741C120.901 87.5104 119.805 87.5109 118.724 87.3038C117.117 86.9957 116.134 86.1326 114.737 85.3915C113.773 84.8794 112.557 85.4799 112.055 86.3293C111.465 87.329 111.841 88.3666 112.617 89.1119C114.089 90.5252 116.985 90.8499 118.907 90.4745C120.007 90.2596 121.016 89.8472 121.907 89.2478C121.913 89.3597 121.917 89.4715 121.926 89.5832L121.943 89.7769C122.091 91.3444 122.522 93.3153 123.741 94.3353C125.74 96.0083 128.207 92.7908 126.264 91.1196L126.204 91.0694C124.997 90.095 124.733 87.4805 124.799 86.0405C124.841 85.1006 125.013 84.1487 125.31 83.2535L125.371 83.0753C125.46 82.8224 126.435 80.4237 126.787 80.7292L126.804 80.7464C126.95 80.9197 127.184 80.7179 127.073 80.5345ZM116.204 67.9119C114.366 69.0277 111.566 71.6296 113.543 74.3958C115.87 76.8348 119.22 74.0383 120.871 72.7735C122.402 71.7933 124.122 74.3143 122.702 75.4589C110.772 84.2819 105.931 68.2037 115.274 66.6C116.303 66.4233 116.685 67.5667 116.204 67.9119ZM135.826 57.5983C134.03 57.2801 132.191 57.7262 130.704 58.7759L130.592 58.8568C129.16 59.9028 127.558 61.7394 128.38 63.5424C128.71 64.2663 129.697 64.3798 130.324 64.0517C131.367 63.5052 131.556 62.1607 132.487 61.4166C133.25 60.8066 134.278 60.4367 135.261 60.5259C137.571 60.7354 138.991 63.011 139.709 64.972C139.8 65.2229 140.169 65.3204 140.313 65.051C142.005 61.8928 139.011 58.1628 135.826 57.5983ZM107.06 56.4064C103.62 56.1232 99.5933 59.686 100.499 63.3134C100.933 65.0539 103.518 65.0041 103.977 63.3134C104.23 62.3831 104.205 61.56 104.875 60.7874C105.429 60.1496 106.215 59.7791 107.06 59.836C107.992 59.8987 108.851 60.3637 109.504 61.0174C110.093 61.6076 110.446 62.4713 111.057 62.9937C111.207 63.1221 111.408 63.1303 111.557 62.9937C112.608 62.0255 111.977 60.0098 111.311 58.999C110.357 57.5526 108.803 56.5501 107.06 56.4064ZM142.377 51.1649C140.17 49.2133 136.16 47.3286 133.184 48.2891C131.473 48.8411 130.728 51.5951 132.638 52.4681C134.849 53.4788 137.399 53.0675 139.651 54.1153C140.596 54.5555 141.485 55.1056 142.143 55.9124C142.662 56.5484 143.19 57.3851 143.94 57.7517C144.137 57.8482 144.404 57.8506 144.562 57.6717C146.206 55.814 143.813 52.434 142.377 51.1649ZM110.853 48.1922C109.489 47.8098 107.976 47.8176 106.591 48.0578C105.206 48.298 103.799 48.8714 102.668 49.7079L102.537 49.8058C101.303 50.7351 99.8294 52.0872 99.9084 53.7335C99.9743 55.1082 101.422 56.038 102.672 55.3175C103.691 54.7299 104.17 53.5529 105.033 52.7691C105.745 52.1223 106.581 51.6123 107.473 51.2549C108.464 50.8579 109.456 50.672 110.52 50.6542C111.339 50.6406 112.162 50.909 112.966 50.9948C112.9 51.1305 113.535 51.0673 113.899 50.9469C114.168 50.8322 114.17 50.4916 114.076 50.2706C113.613 49.176 111.926 48.4927 110.853 48.1922Z" fill="#06060F"/>
</svg>
