<svg width="1994" height="1208" viewBox="0 0 1994 1208" fill="none" xmlns="http://www.w3.org/2000/svg">
<g clip-path="url(#clip0)">
<g opacity="0.3">
<path opacity="0.3" fill-rule="evenodd" clip-rule="evenodd" d="M809.432 438.925L768.562 479.795L767.854 479.088L808.724 438.218L809.432 438.925Z" fill="url(#paint0_linear)"/>
<path opacity="0.3" d="M448.814 327.281C449.864 326.231 449.864 324.529 448.814 323.479C447.764 322.43 446.062 322.43 445.012 323.479C443.962 324.529 443.962 326.231 445.012 327.281C446.062 328.331 447.764 328.331 448.814 327.281Z" fill="#4A5AED"/>
<path opacity="0.3" fill-rule="evenodd" clip-rule="evenodd" d="M489.087 283.914L448.217 324.784L447.51 324.076L488.38 283.206L489.087 283.914Z" fill="url(#paint1_linear)"/>
<path opacity="0.3" d="M743.312 356.853C744.026 356.139 744.026 354.982 743.312 354.268C742.599 353.554 741.441 353.554 740.727 354.268C740.013 354.982 740.013 356.139 740.727 356.853C741.441 357.567 742.599 357.567 743.312 356.853Z" fill="#4A5AED"/>
<path opacity="0.3" fill-rule="evenodd" clip-rule="evenodd" d="M770.812 327.476L743.021 355.268L742.313 354.56L770.104 326.769L770.812 327.476Z" fill="url(#paint2_linear)"/>
<path opacity="0.3" d="M610.976 432.312C611.69 431.598 611.69 430.441 610.976 429.727C610.263 429.013 609.105 429.013 608.391 429.727C607.677 430.441 607.677 431.598 608.391 432.312C609.105 433.026 610.263 433.026 610.976 432.312Z" fill="#4A5AED"/>
<path opacity="0.3" fill-rule="evenodd" clip-rule="evenodd" d="M638.476 402.935L610.685 430.726L609.978 430.019L637.769 402.228L638.476 402.935Z" fill="url(#paint3_linear)"/>
<path opacity="0.3" fill-rule="evenodd" clip-rule="evenodd" d="M420.721 431.162L392.93 458.954L392.223 458.247L420.014 430.455L420.721 431.162Z" fill="url(#paint4_linear)"/>
<path opacity="0.3" d="M574.684 281.767C575.398 281.053 575.398 279.895 574.684 279.181C573.971 278.467 572.813 278.467 572.099 279.181C571.385 279.895 571.385 281.053 572.099 281.766C572.813 282.48 573.971 282.48 574.684 281.767Z" fill="#4A5AED"/>
<path opacity="0.3" fill-rule="evenodd" clip-rule="evenodd" d="M602.184 252.39L574.393 280.181L573.686 279.474L601.477 251.683L602.184 252.39Z" fill="url(#paint5_linear)"/>
</g>
</g>
<g opacity="0.3">
<path opacity="0.3" d="M820.812 858.611C821.862 857.561 821.862 855.859 820.812 854.809C819.762 853.759 818.06 853.759 817.01 854.809C815.96 855.859 815.96 857.561 817.01 858.611C818.06 859.661 819.762 859.661 820.812 858.611Z" fill="#4A5AED"/>
<path opacity="0.3" fill-rule="evenodd" clip-rule="evenodd" d="M861.087 815.242L820.217 856.112L819.51 855.405L860.38 814.535L861.087 815.242Z" fill="url(#paint6_linear)"/>
<path opacity="0.3" d="M720.911 971.087C721.961 970.037 721.961 968.335 720.911 967.285C719.861 966.235 718.159 966.235 717.109 967.285C716.06 968.335 716.06 970.037 717.109 971.087C718.159 972.137 719.861 972.137 720.911 971.087Z" fill="#4A5AED"/>
<path opacity="0.3" fill-rule="evenodd" clip-rule="evenodd" d="M761.185 927.719L720.315 968.589L719.608 967.882L760.478 927.012L761.185 927.719Z" fill="url(#paint7_linear)"/>
<path opacity="0.3" d="M500.469 703.599C501.519 702.549 501.519 700.847 500.469 699.797C499.42 698.747 497.717 698.747 496.668 699.797C495.618 700.847 495.618 702.549 496.668 703.599C497.717 704.649 499.42 704.649 500.469 703.599Z" fill="#4A5AED"/>
<path opacity="0.3" fill-rule="evenodd" clip-rule="evenodd" d="M540.742 660.231L499.872 701.101L499.165 700.394L540.035 659.524L540.742 660.231Z" fill="url(#paint8_linear)"/>
<path opacity="0.3" d="M794.968 733.17C795.682 732.456 795.682 731.299 794.968 730.585C794.254 729.871 793.096 729.871 792.382 730.585C791.669 731.299 791.669 732.456 792.382 733.17C793.096 733.884 794.254 733.884 794.968 733.17Z" fill="#4A5AED"/>
<path opacity="0.3" fill-rule="evenodd" clip-rule="evenodd" d="M822.467 703.794L794.676 731.585L793.969 730.878L821.76 703.086L822.467 703.794Z" fill="url(#paint9_linear)"/>
<path opacity="0.3" d="M662.632 808.629C663.346 807.915 663.346 806.758 662.632 806.044C661.918 805.33 660.76 805.33 660.047 806.044C659.333 806.758 659.333 807.915 660.047 808.629C660.76 809.343 661.918 809.343 662.632 808.629Z" fill="#4A5AED"/>
<path opacity="0.3" fill-rule="evenodd" clip-rule="evenodd" d="M690.131 779.252L662.34 807.043L661.633 806.336L689.424 778.545L690.131 779.252Z" fill="url(#paint10_linear)"/>
<path opacity="0.3" d="M444.878 836.856C445.592 836.142 445.592 834.985 444.878 834.271C444.164 833.557 443.007 833.557 442.293 834.271C441.579 834.985 441.579 836.142 442.293 836.856C443.007 837.57 444.164 837.57 444.878 836.856Z" fill="#4A5AED"/>
<path opacity="0.3" fill-rule="evenodd" clip-rule="evenodd" d="M472.376 807.479L444.585 835.271L443.878 834.564L471.669 806.772L472.376 807.479Z" fill="url(#paint11_linear)"/>
<path opacity="0.3" d="M555.099 896C555.813 895.287 555.813 894.129 555.099 893.415C554.385 892.701 553.228 892.701 552.514 893.415C551.8 894.129 551.8 895.286 552.514 896C553.228 896.714 554.385 896.714 555.099 896Z" fill="#4A5AED"/>
<path opacity="0.3" fill-rule="evenodd" clip-rule="evenodd" d="M582.598 866.623L554.806 894.414L554.099 893.707L581.891 865.916L582.598 866.623Z" fill="url(#paint12_linear)"/>
<path opacity="0.3" d="M626.34 658.084C627.054 657.37 627.054 656.213 626.34 655.499C625.626 654.785 624.468 654.785 623.755 655.499C623.041 656.213 623.041 657.37 623.755 658.084C624.468 658.798 625.626 658.798 626.34 658.084Z" fill="#4A5AED"/>
<path opacity="0.3" fill-rule="evenodd" clip-rule="evenodd" d="M653.839 628.707L626.048 656.498L625.341 655.791L653.132 628L653.839 628.707Z" fill="url(#paint13_linear)"/>
</g>
<g opacity="0.3">
<path opacity="0.3" d="M1331.81 641.611C1332.86 640.561 1332.86 638.859 1331.81 637.809C1330.76 636.759 1329.06 636.759 1328.01 637.809C1326.96 638.859 1326.96 640.561 1328.01 641.611C1329.06 642.661 1330.76 642.661 1331.81 641.611Z" fill="#4A5AED"/>
<path opacity="0.3" fill-rule="evenodd" clip-rule="evenodd" d="M1372.09 598.242L1331.22 639.112L1330.51 638.405L1371.38 597.535L1372.09 598.242Z" fill="url(#paint14_linear)"/>
<path opacity="0.3" d="M1231.91 754.087C1232.96 753.037 1232.96 751.335 1231.91 750.285C1230.86 749.235 1229.16 749.235 1228.11 750.285C1227.06 751.335 1227.06 753.037 1228.11 754.087C1229.16 755.137 1230.86 755.137 1231.91 754.087Z" fill="#4A5AED"/>
<path opacity="0.3" fill-rule="evenodd" clip-rule="evenodd" d="M1272.19 710.719L1231.32 751.589L1230.61 750.882L1271.48 710.012L1272.19 710.719Z" fill="url(#paint15_linear)"/>
<path opacity="0.3" d="M1011.47 486.598C1012.52 485.549 1012.52 483.846 1011.47 482.797C1010.42 481.747 1008.72 481.747 1007.67 482.797C1006.62 483.846 1006.62 485.549 1007.67 486.598C1008.72 487.648 1010.42 487.648 1011.47 486.598Z" fill="#4A5AED"/>
<path opacity="0.3" fill-rule="evenodd" clip-rule="evenodd" d="M1051.74 443.231L1010.87 484.101L1010.17 483.393L1051.04 442.523L1051.74 443.231Z" fill="url(#paint16_linear)"/>
<path opacity="0.3" d="M1305.97 516.17C1306.68 515.456 1306.68 514.299 1305.97 513.585C1305.25 512.871 1304.1 512.871 1303.38 513.585C1302.67 514.299 1302.67 515.456 1303.38 516.17C1304.1 516.884 1305.25 516.884 1305.97 516.17Z" fill="#4A5AED"/>
<path opacity="0.3" fill-rule="evenodd" clip-rule="evenodd" d="M1333.47 486.794L1305.68 514.585L1304.97 513.878L1332.76 486.086L1333.47 486.794Z" fill="url(#paint17_linear)"/>
<path opacity="0.3" d="M1173.63 591.629C1174.35 590.915 1174.35 589.758 1173.63 589.044C1172.92 588.33 1171.76 588.33 1171.05 589.044C1170.33 589.758 1170.33 590.915 1171.05 591.629C1171.76 592.343 1172.92 592.343 1173.63 591.629Z" fill="#4A5AED"/>
<path opacity="0.3" fill-rule="evenodd" clip-rule="evenodd" d="M1201.13 562.252L1173.34 590.043L1172.63 589.336L1200.42 561.545L1201.13 562.252Z" fill="url(#paint18_linear)"/>
<path opacity="0.3" d="M955.878 619.856C956.592 619.142 956.592 617.985 955.878 617.271C955.164 616.557 954.007 616.557 953.293 617.271C952.579 617.985 952.579 619.142 953.293 619.856C954.007 620.57 955.164 620.57 955.878 619.856Z" fill="#4A5AED"/>
<path opacity="0.3" fill-rule="evenodd" clip-rule="evenodd" d="M983.376 590.479L955.585 618.271L954.878 617.564L982.669 589.772L983.376 590.479Z" fill="url(#paint19_linear)"/>
<path opacity="0.3" d="M1066.1 679C1066.81 678.287 1066.81 677.129 1066.1 676.415C1065.39 675.701 1064.23 675.701 1063.51 676.415C1062.8 677.129 1062.8 678.286 1063.51 679C1064.23 679.714 1065.39 679.714 1066.1 679Z" fill="#4A5AED"/>
<path opacity="0.3" fill-rule="evenodd" clip-rule="evenodd" d="M1093.6 649.623L1065.81 677.414L1065.1 676.707L1092.89 648.916L1093.6 649.623Z" fill="url(#paint20_linear)"/>
<path opacity="0.3" d="M1137.34 441.084C1138.05 440.37 1138.05 439.212 1137.34 438.498C1136.63 437.785 1135.47 437.785 1134.75 438.498C1134.04 439.212 1134.04 440.37 1134.75 441.084C1135.47 441.798 1136.63 441.798 1137.34 441.084Z" fill="#4A5AED"/>
<path opacity="0.3" fill-rule="evenodd" clip-rule="evenodd" d="M1164.84 411.707L1137.05 439.498L1136.34 438.791L1164.13 411L1164.84 411.707Z" fill="url(#paint21_linear)"/>
</g>
<g opacity="0.3">
<path opacity="0.3" d="M1842.81 424.611C1843.86 423.561 1843.86 421.859 1842.81 420.809C1841.76 419.759 1840.06 419.759 1839.01 420.809C1837.96 421.859 1837.96 423.561 1839.01 424.611C1840.06 425.661 1841.76 425.661 1842.81 424.611Z" fill="#4A5AED"/>
<path opacity="0.3" fill-rule="evenodd" clip-rule="evenodd" d="M1883.09 381.242L1842.22 422.112L1841.51 421.405L1882.38 380.535L1883.09 381.242Z" fill="url(#paint22_linear)"/>
<path opacity="0.3" d="M1742.91 537.087C1743.96 536.037 1743.96 534.335 1742.91 533.285C1741.86 532.235 1740.16 532.235 1739.11 533.285C1738.06 534.335 1738.06 536.037 1739.11 537.087C1740.16 538.137 1741.86 538.137 1742.91 537.087Z" fill="#4A5AED"/>
<path opacity="0.3" fill-rule="evenodd" clip-rule="evenodd" d="M1783.19 493.719L1742.32 534.589L1741.61 533.882L1782.48 493.012L1783.19 493.719Z" fill="url(#paint23_linear)"/>
<path opacity="0.3" d="M1522.47 269.599C1523.52 268.549 1523.52 266.846 1522.47 265.797C1521.42 264.747 1519.72 264.747 1518.67 265.797C1517.62 266.846 1517.62 268.549 1518.67 269.599C1519.72 270.648 1521.42 270.648 1522.47 269.599Z" fill="#4A5AED"/>
<path opacity="0.3" fill-rule="evenodd" clip-rule="evenodd" d="M1562.74 226.231L1521.87 267.101L1521.17 266.394L1562.04 225.524L1562.74 226.231Z" fill="url(#paint24_linear)"/>
<path opacity="0.3" d="M1816.97 299.17C1817.68 298.456 1817.68 297.299 1816.97 296.585C1816.25 295.871 1815.1 295.871 1814.38 296.585C1813.67 297.299 1813.67 298.456 1814.38 299.17C1815.1 299.884 1816.25 299.884 1816.97 299.17Z" fill="#4A5AED"/>
<path opacity="0.3" fill-rule="evenodd" clip-rule="evenodd" d="M1844.47 269.794L1816.68 297.585L1815.97 296.878L1843.76 269.086L1844.47 269.794Z" fill="url(#paint25_linear)"/>
<path opacity="0.3" d="M1684.63 374.629C1685.35 373.915 1685.35 372.758 1684.63 372.044C1683.92 371.33 1682.76 371.33 1682.05 372.044C1681.33 372.758 1681.33 373.915 1682.05 374.629C1682.76 375.343 1683.92 375.343 1684.63 374.629Z" fill="#4A5AED"/>
<path opacity="0.3" fill-rule="evenodd" clip-rule="evenodd" d="M1712.13 345.252L1684.34 373.043L1683.63 372.336L1711.42 344.545L1712.13 345.252Z" fill="url(#paint26_linear)"/>
<path opacity="0.3" d="M1466.88 402.856C1467.59 402.142 1467.59 400.985 1466.88 400.271C1466.16 399.557 1465.01 399.557 1464.29 400.271C1463.58 400.985 1463.58 402.142 1464.29 402.856C1465.01 403.57 1466.16 403.57 1466.88 402.856Z" fill="#4A5AED"/>
<path opacity="0.3" fill-rule="evenodd" clip-rule="evenodd" d="M1494.38 373.479L1466.59 401.271L1465.88 400.564L1493.67 372.772L1494.38 373.479Z" fill="url(#paint27_linear)"/>
<path opacity="0.3" d="M1577.1 462C1577.81 461.287 1577.81 460.129 1577.1 459.415C1576.39 458.701 1575.23 458.701 1574.51 459.415C1573.8 460.129 1573.8 461.286 1574.51 462C1575.23 462.714 1576.39 462.714 1577.1 462Z" fill="#4A5AED"/>
<path opacity="0.3" fill-rule="evenodd" clip-rule="evenodd" d="M1604.6 432.623L1576.81 460.414L1576.1 459.707L1603.89 431.916L1604.6 432.623Z" fill="url(#paint28_linear)"/>
<path opacity="0.3" d="M1648.34 224.084C1649.05 223.37 1649.05 222.212 1648.34 221.498C1647.63 220.785 1646.47 220.785 1645.75 221.498C1645.04 222.212 1645.04 223.37 1645.75 224.084C1646.47 224.798 1647.63 224.798 1648.34 224.084Z" fill="#4A5AED"/>
<path opacity="0.3" fill-rule="evenodd" clip-rule="evenodd" d="M1675.84 194.707L1648.05 222.498L1647.34 221.791L1675.13 194L1675.84 194.707Z" fill="url(#paint29_linear)"/>
</g>
<g opacity="0.3">
<path opacity="0.3" d="M1305.81 230.611C1306.86 229.561 1306.86 227.859 1305.81 226.809C1304.76 225.759 1303.06 225.759 1302.01 226.809C1300.96 227.859 1300.96 229.561 1302.01 230.611C1303.06 231.66 1304.76 231.66 1305.81 230.611Z" fill="#4A5AED"/>
<path opacity="0.3" fill-rule="evenodd" clip-rule="evenodd" d="M1346.09 187.242L1305.22 228.112L1304.51 227.405L1345.38 186.535L1346.09 187.242Z" fill="url(#paint30_linear)"/>
<path opacity="0.3" d="M1205.91 343.087C1206.96 342.037 1206.96 340.335 1205.91 339.285C1204.86 338.235 1203.16 338.235 1202.11 339.285C1201.06 340.335 1201.06 342.037 1202.11 343.087C1203.16 344.137 1204.86 344.137 1205.91 343.087Z" fill="#4A5AED"/>
<path opacity="0.3" fill-rule="evenodd" clip-rule="evenodd" d="M1246.19 299.719L1205.32 340.589L1204.61 339.882L1245.48 299.012L1246.19 299.719Z" fill="url(#paint31_linear)"/>
<path opacity="0.3" d="M985.469 75.5985C986.519 74.5486 986.519 72.8465 985.469 71.7966C984.42 70.7468 982.717 70.7468 981.668 71.7966C980.618 72.8465 980.618 74.5486 981.668 75.5985C982.717 76.6484 984.42 76.6484 985.469 75.5985Z" fill="#4A5AED"/>
<path opacity="0.3" fill-rule="evenodd" clip-rule="evenodd" d="M1025.74 32.2307L984.872 73.1007L984.165 72.3936L1025.04 31.5236L1025.74 32.2307Z" fill="url(#paint32_linear)"/>
<path opacity="0.3" d="M1279.97 105.17C1280.68 104.456 1280.68 103.299 1279.97 102.585C1279.25 101.871 1278.1 101.871 1277.38 102.585C1276.67 103.299 1276.67 104.456 1277.38 105.17C1278.1 105.884 1279.25 105.884 1279.97 105.17Z" fill="#4A5AED"/>
<path opacity="0.3" fill-rule="evenodd" clip-rule="evenodd" d="M1307.47 75.7935L1279.68 103.585L1278.97 102.878L1306.76 75.0864L1307.47 75.7935Z" fill="url(#paint33_linear)"/>
<path opacity="0.3" d="M1147.63 180.629C1148.35 179.915 1148.35 178.758 1147.63 178.044C1146.92 177.33 1145.76 177.33 1145.05 178.044C1144.33 178.758 1144.33 179.915 1145.05 180.629C1145.76 181.343 1146.92 181.343 1147.63 180.629Z" fill="#4A5AED"/>
<path opacity="0.3" fill-rule="evenodd" clip-rule="evenodd" d="M1175.13 151.252L1147.34 179.043L1146.63 178.336L1174.42 150.545L1175.13 151.252Z" fill="url(#paint34_linear)"/>
<path opacity="0.3" d="M929.878 208.856C930.592 208.142 930.592 206.985 929.878 206.271C929.164 205.557 928.007 205.557 927.293 206.271C926.579 206.985 926.579 208.142 927.293 208.856C928.007 209.57 929.164 209.57 929.878 208.856Z" fill="#4A5AED"/>
<path opacity="0.3" fill-rule="evenodd" clip-rule="evenodd" d="M957.376 179.479L929.585 207.271L928.878 206.564L956.669 178.772L957.376 179.479Z" fill="url(#paint35_linear)"/>
<path opacity="0.3" d="M1040.1 268C1040.81 267.286 1040.81 266.129 1040.1 265.415C1039.39 264.701 1038.23 264.701 1037.51 265.415C1036.8 266.129 1036.8 267.286 1037.51 268C1038.23 268.714 1039.39 268.714 1040.1 268Z" fill="#4A5AED"/>
<path opacity="0.3" fill-rule="evenodd" clip-rule="evenodd" d="M1067.6 238.623L1039.81 266.414L1039.1 265.707L1066.89 237.916L1067.6 238.623Z" fill="url(#paint36_linear)"/>
<path opacity="0.3" d="M1111.34 30.0837C1112.05 29.3698 1112.05 28.2123 1111.34 27.4985C1110.63 26.7846 1109.47 26.7846 1108.75 27.4985C1108.04 28.2124 1108.04 29.3698 1108.75 30.0837C1109.47 30.7976 1110.63 30.7976 1111.34 30.0837Z" fill="#4A5AED"/>
<path opacity="0.3" fill-rule="evenodd" clip-rule="evenodd" d="M1138.84 0.707104L1111.05 28.4983L1110.34 27.7912L1138.13 0L1138.84 0.707104Z" fill="url(#paint37_linear)"/>
</g>
<g opacity="0.3">
<path opacity="0.3" d="M1331.81 1083.61C1332.86 1082.56 1332.86 1080.86 1331.81 1079.81C1330.76 1078.76 1329.06 1078.76 1328.01 1079.81C1326.96 1080.86 1326.96 1082.56 1328.01 1083.61C1329.06 1084.66 1330.76 1084.66 1331.81 1083.61Z" fill="#4A5AED"/>
<path opacity="0.3" fill-rule="evenodd" clip-rule="evenodd" d="M1372.09 1040.24L1331.22 1081.11L1330.51 1080.41L1371.38 1039.54L1372.09 1040.24Z" fill="url(#paint38_linear)"/>
<path opacity="0.3" d="M1231.91 1196.09C1232.96 1195.04 1232.96 1193.33 1231.91 1192.28C1230.86 1191.24 1229.16 1191.24 1228.11 1192.28C1227.06 1193.33 1227.06 1195.04 1228.11 1196.09C1229.16 1197.14 1230.86 1197.14 1231.91 1196.09Z" fill="#4A5AED"/>
<path opacity="0.3" fill-rule="evenodd" clip-rule="evenodd" d="M1272.19 1152.72L1231.32 1193.59L1230.61 1192.88L1271.48 1152.01L1272.19 1152.72Z" fill="url(#paint39_linear)"/>
<path opacity="0.3" d="M1011.47 928.599C1012.52 927.549 1012.52 925.847 1011.47 924.797C1010.42 923.747 1008.72 923.747 1007.67 924.797C1006.62 925.847 1006.62 927.549 1007.67 928.599C1008.72 929.649 1010.42 929.649 1011.47 928.599Z" fill="#4A5AED"/>
<path opacity="0.3" fill-rule="evenodd" clip-rule="evenodd" d="M1051.74 885.231L1010.87 926.101L1010.17 925.394L1051.04 884.524L1051.74 885.231Z" fill="url(#paint40_linear)"/>
<path opacity="0.3" d="M1305.97 958.17C1306.68 957.456 1306.68 956.299 1305.97 955.585C1305.25 954.871 1304.1 954.871 1303.38 955.585C1302.67 956.299 1302.67 957.456 1303.38 958.17C1304.1 958.884 1305.25 958.884 1305.97 958.17Z" fill="#4A5AED"/>
<path opacity="0.3" fill-rule="evenodd" clip-rule="evenodd" d="M1333.47 928.794L1305.68 956.585L1304.97 955.878L1332.76 928.086L1333.47 928.794Z" fill="url(#paint41_linear)"/>
<path opacity="0.3" d="M1173.63 1033.63C1174.35 1032.92 1174.35 1031.76 1173.63 1031.04C1172.92 1030.33 1171.76 1030.33 1171.05 1031.04C1170.33 1031.76 1170.33 1032.92 1171.05 1033.63C1171.76 1034.34 1172.92 1034.34 1173.63 1033.63Z" fill="#4A5AED"/>
<path opacity="0.3" fill-rule="evenodd" clip-rule="evenodd" d="M1201.13 1004.25L1173.34 1032.04L1172.63 1031.34L1200.42 1003.55L1201.13 1004.25Z" fill="url(#paint42_linear)"/>
<path opacity="0.3" d="M955.878 1061.86C956.592 1061.14 956.592 1059.99 955.878 1059.27C955.164 1058.56 954.007 1058.56 953.293 1059.27C952.579 1059.98 952.579 1061.14 953.293 1061.86C954.007 1062.57 955.164 1062.57 955.878 1061.86Z" fill="#4A5AED"/>
<path opacity="0.3" fill-rule="evenodd" clip-rule="evenodd" d="M983.376 1032.48L955.585 1060.27L954.878 1059.56L982.669 1031.77L983.376 1032.48Z" fill="url(#paint43_linear)"/>
<path opacity="0.3" d="M1066.1 1121C1066.81 1120.29 1066.81 1119.13 1066.1 1118.42C1065.39 1117.7 1064.23 1117.7 1063.51 1118.42C1062.8 1119.13 1062.8 1120.29 1063.51 1121C1064.23 1121.71 1065.39 1121.71 1066.1 1121Z" fill="#4A5AED"/>
<path opacity="0.3" fill-rule="evenodd" clip-rule="evenodd" d="M1093.6 1091.62L1065.81 1119.41L1065.1 1118.71L1092.89 1090.92L1093.6 1091.62Z" fill="url(#paint44_linear)"/>
<path opacity="0.3" d="M1137.34 883.084C1138.05 882.37 1138.05 881.212 1137.34 880.499C1136.63 879.785 1135.47 879.785 1134.75 880.499C1134.04 881.212 1134.04 882.37 1134.75 883.084C1135.47 883.798 1136.63 883.798 1137.34 883.084Z" fill="#4A5AED"/>
<path opacity="0.3" fill-rule="evenodd" clip-rule="evenodd" d="M1164.84 853.707L1137.05 881.498L1136.34 880.791L1164.13 853L1164.84 853.707Z" fill="url(#paint45_linear)"/>
</g>
<g opacity="0.3">
<path opacity="0.3" d="M1952.81 902.611C1953.86 901.561 1953.86 899.859 1952.81 898.809C1951.76 897.759 1950.06 897.759 1949.01 898.809C1947.96 899.859 1947.96 901.561 1949.01 902.611C1950.06 903.661 1951.76 903.661 1952.81 902.611Z" fill="#4A5AED"/>
<path opacity="0.3" fill-rule="evenodd" clip-rule="evenodd" d="M1993.09 859.242L1952.22 900.112L1951.51 899.405L1992.38 858.535L1993.09 859.242Z" fill="url(#paint46_linear)"/>
<path opacity="0.3" d="M1852.91 1015.09C1853.96 1014.04 1853.96 1012.33 1852.91 1011.28C1851.86 1010.23 1850.16 1010.23 1849.11 1011.28C1848.06 1012.33 1848.06 1014.04 1849.11 1015.09C1850.16 1016.14 1851.86 1016.14 1852.91 1015.09Z" fill="#4A5AED"/>
<path opacity="0.3" fill-rule="evenodd" clip-rule="evenodd" d="M1893.19 971.719L1852.32 1012.59L1851.61 1011.88L1892.48 971.012L1893.19 971.719Z" fill="url(#paint47_linear)"/>
<path opacity="0.3" d="M1632.47 747.599C1633.52 746.549 1633.52 744.847 1632.47 743.797C1631.42 742.747 1629.72 742.747 1628.67 743.797C1627.62 744.847 1627.62 746.549 1628.67 747.599C1629.72 748.648 1631.42 748.648 1632.47 747.599Z" fill="#4A5AED"/>
<path opacity="0.3" fill-rule="evenodd" clip-rule="evenodd" d="M1672.74 704.231L1631.87 745.101L1631.17 744.394L1672.04 703.524L1672.74 704.231Z" fill="url(#paint48_linear)"/>
<path opacity="0.3" d="M1926.97 777.17C1927.68 776.456 1927.68 775.299 1926.97 774.585C1926.25 773.871 1925.1 773.871 1924.38 774.585C1923.67 775.299 1923.67 776.456 1924.38 777.17C1925.1 777.884 1926.25 777.884 1926.97 777.17Z" fill="#4A5AED"/>
<path opacity="0.3" fill-rule="evenodd" clip-rule="evenodd" d="M1954.47 747.794L1926.68 775.585L1925.97 774.878L1953.76 747.086L1954.47 747.794Z" fill="url(#paint49_linear)"/>
<path opacity="0.3" d="M1794.63 852.629C1795.35 851.915 1795.35 850.758 1794.63 850.044C1793.92 849.33 1792.76 849.33 1792.05 850.044C1791.33 850.758 1791.33 851.915 1792.05 852.629C1792.76 853.343 1793.92 853.343 1794.63 852.629Z" fill="#4A5AED"/>
<path opacity="0.3" fill-rule="evenodd" clip-rule="evenodd" d="M1822.13 823.252L1794.34 851.043L1793.63 850.336L1821.42 822.545L1822.13 823.252Z" fill="url(#paint50_linear)"/>
<path opacity="0.3" d="M1576.88 880.856C1577.59 880.142 1577.59 878.985 1576.88 878.271C1576.16 877.557 1575.01 877.557 1574.29 878.271C1573.58 878.985 1573.58 880.142 1574.29 880.856C1575.01 881.57 1576.16 881.57 1576.88 880.856Z" fill="#4A5AED"/>
<path opacity="0.3" fill-rule="evenodd" clip-rule="evenodd" d="M1604.38 851.479L1576.59 879.271L1575.88 878.564L1603.67 850.772L1604.38 851.479Z" fill="url(#paint51_linear)"/>
<path opacity="0.3" d="M1687.1 940C1687.81 939.286 1687.81 938.129 1687.1 937.415C1686.39 936.701 1685.23 936.701 1684.51 937.415C1683.8 938.129 1683.8 939.286 1684.51 940C1685.23 940.714 1686.39 940.714 1687.1 940Z" fill="#4A5AED"/>
<path opacity="0.3" fill-rule="evenodd" clip-rule="evenodd" d="M1714.6 910.623L1686.81 938.414L1686.1 937.707L1713.89 909.916L1714.6 910.623Z" fill="url(#paint52_linear)"/>
<path opacity="0.3" d="M1758.34 702.084C1759.05 701.37 1759.05 700.212 1758.34 699.499C1757.63 698.785 1756.47 698.785 1755.75 699.499C1755.04 700.212 1755.04 701.37 1755.75 702.084C1756.47 702.798 1757.63 702.798 1758.34 702.084Z" fill="#4A5AED"/>
<path opacity="0.3" fill-rule="evenodd" clip-rule="evenodd" d="M1785.84 672.707L1758.05 700.498L1757.34 699.791L1785.13 672L1785.84 672.707Z" fill="url(#paint53_linear)"/>
</g>
<g opacity="0.3">
<path opacity="0.3" d="M379.812 1093.61C380.862 1092.56 380.862 1090.86 379.812 1089.81C378.762 1088.76 377.06 1088.76 376.01 1089.81C374.96 1090.86 374.96 1092.56 376.01 1093.61C377.06 1094.66 378.762 1094.66 379.812 1093.61Z" fill="#4A5AED"/>
<path opacity="0.3" fill-rule="evenodd" clip-rule="evenodd" d="M420.087 1050.24L379.217 1091.11L378.51 1090.41L419.38 1049.54L420.087 1050.24Z" fill="url(#paint54_linear)"/>
<path opacity="0.3" d="M279.911 1206.09C280.961 1205.04 280.961 1203.33 279.911 1202.28C278.861 1201.23 277.159 1201.23 276.109 1202.28C275.06 1203.33 275.06 1205.04 276.109 1206.09C277.159 1207.14 278.861 1207.14 279.911 1206.09Z" fill="#4A5AED"/>
<path opacity="0.3" fill-rule="evenodd" clip-rule="evenodd" d="M320.185 1162.72L279.315 1203.59L278.608 1202.88L319.478 1162.01L320.185 1162.72Z" fill="url(#paint55_linear)"/>
<path opacity="0.3" d="M59.4694 938.599C60.5192 937.549 60.5192 935.847 59.4694 934.797C58.4195 933.747 56.7174 933.747 55.6675 934.797C54.6177 935.847 54.6177 937.549 55.6675 938.599C56.7174 939.648 58.4195 939.648 59.4694 938.599Z" fill="#4A5AED"/>
<path opacity="0.3" fill-rule="evenodd" clip-rule="evenodd" d="M99.7421 895.231L58.8721 936.101L58.165 935.394L99.035 894.524L99.7421 895.231Z" fill="url(#paint56_linear)"/>
<path opacity="0.3" d="M353.968 968.17C354.682 967.456 354.682 966.299 353.968 965.585C353.254 964.871 352.096 964.871 351.382 965.585C350.669 966.299 350.669 967.456 351.382 968.17C352.096 968.884 353.254 968.884 353.968 968.17Z" fill="#4A5AED"/>
<path opacity="0.3" fill-rule="evenodd" clip-rule="evenodd" d="M381.467 938.794L353.676 966.585L352.969 965.878L380.76 938.086L381.467 938.794Z" fill="url(#paint57_linear)"/>
<path opacity="0.3" d="M221.632 1043.63C222.346 1042.92 222.346 1041.76 221.632 1041.04C220.918 1040.33 219.76 1040.33 219.047 1041.04C218.333 1041.76 218.333 1042.92 219.047 1043.63C219.76 1044.34 220.918 1044.34 221.632 1043.63Z" fill="#4A5AED"/>
<path opacity="0.3" fill-rule="evenodd" clip-rule="evenodd" d="M249.131 1014.25L221.34 1042.04L220.633 1041.34L248.424 1013.55L249.131 1014.25Z" fill="url(#paint58_linear)"/>
<path opacity="0.3" d="M3.87786 1071.86C4.59175 1071.14 4.59176 1069.99 3.87786 1069.27C3.16397 1068.56 2.00651 1068.56 1.29262 1069.27C0.578725 1069.98 0.578732 1071.14 1.29263 1071.86C2.00652 1072.57 3.16397 1072.57 3.87786 1071.86Z" fill="#4A5AED"/>
<path opacity="0.3" fill-rule="evenodd" clip-rule="evenodd" d="M31.3763 1042.48L3.58505 1070.27L2.87793 1069.56L30.6692 1041.77L31.3763 1042.48Z" fill="url(#paint59_linear)"/>
<path opacity="0.3" d="M114.099 1131C114.813 1130.29 114.813 1129.13 114.099 1128.42C113.385 1127.7 112.228 1127.7 111.514 1128.42C110.8 1129.13 110.8 1130.29 111.514 1131C112.228 1131.71 113.385 1131.71 114.099 1131Z" fill="#4A5AED"/>
<path opacity="0.3" fill-rule="evenodd" clip-rule="evenodd" d="M141.598 1101.62L113.806 1129.41L113.099 1128.71L140.891 1100.92L141.598 1101.62Z" fill="url(#paint60_linear)"/>
<path opacity="0.3" d="M185.34 893.084C186.054 892.37 186.054 891.213 185.34 890.499C184.626 889.785 183.468 889.785 182.755 890.499C182.041 891.213 182.041 892.37 182.755 893.084C183.468 893.798 184.626 893.798 185.34 893.084Z" fill="#4A5AED"/>
<path opacity="0.3" fill-rule="evenodd" clip-rule="evenodd" d="M212.839 863.707L185.048 891.498L184.341 890.791L212.132 863L212.839 863.707Z" fill="url(#paint61_linear)"/>
</g>
<defs>
<linearGradient id="paint0_linear" x1="762.029" y1="485.62" x2="799.539" y2="449.019" gradientUnits="userSpaceOnUse">
<stop stop-color="#4A5AED"/>
<stop offset="1" stop-color="#284BFF" stop-opacity="0"/>
</linearGradient>
<linearGradient id="paint1_linear" x1="441.685" y1="330.608" x2="479.195" y2="294.007" gradientUnits="userSpaceOnUse">
<stop stop-color="#4A5AED"/>
<stop offset="1" stop-color="#284BFF" stop-opacity="0"/>
</linearGradient>
<linearGradient id="paint2_linear" x1="738.466" y1="359.116" x2="763.875" y2="334.126" gradientUnits="userSpaceOnUse">
<stop stop-color="#4A5AED"/>
<stop offset="1" stop-color="#284BFF" stop-opacity="0"/>
</linearGradient>
<linearGradient id="paint3_linear" x1="606.13" y1="434.574" x2="631.539" y2="409.585" gradientUnits="userSpaceOnUse">
<stop stop-color="#4A5AED"/>
<stop offset="1" stop-color="#284BFF" stop-opacity="0"/>
</linearGradient>
<linearGradient id="paint4_linear" x1="388.375" y1="462.802" x2="413.784" y2="437.812" gradientUnits="userSpaceOnUse">
<stop stop-color="#4A5AED"/>
<stop offset="1" stop-color="#284BFF" stop-opacity="0"/>
</linearGradient>
<linearGradient id="paint5_linear" x1="569.838" y1="284.029" x2="595.247" y2="259.04" gradientUnits="userSpaceOnUse">
<stop stop-color="#4A5AED"/>
<stop offset="1" stop-color="#284BFF" stop-opacity="0"/>
</linearGradient>
<linearGradient id="paint6_linear" x1="813.684" y1="861.937" x2="851.194" y2="825.336" gradientUnits="userSpaceOnUse">
<stop stop-color="#4A5AED"/>
<stop offset="1" stop-color="#284BFF" stop-opacity="0"/>
</linearGradient>
<linearGradient id="paint7_linear" x1="713.783" y1="974.414" x2="751.292" y2="937.813" gradientUnits="userSpaceOnUse">
<stop stop-color="#4A5AED"/>
<stop offset="1" stop-color="#284BFF" stop-opacity="0"/>
</linearGradient>
<linearGradient id="paint8_linear" x1="493.341" y1="706.925" x2="530.85" y2="670.324" gradientUnits="userSpaceOnUse">
<stop stop-color="#4A5AED"/>
<stop offset="1" stop-color="#284BFF" stop-opacity="0"/>
</linearGradient>
<linearGradient id="paint9_linear" x1="790.121" y1="735.433" x2="815.53" y2="710.443" gradientUnits="userSpaceOnUse">
<stop stop-color="#4A5AED"/>
<stop offset="1" stop-color="#284BFF" stop-opacity="0"/>
</linearGradient>
<linearGradient id="paint10_linear" x1="657.785" y1="810.891" x2="683.194" y2="785.902" gradientUnits="userSpaceOnUse">
<stop stop-color="#4A5AED"/>
<stop offset="1" stop-color="#284BFF" stop-opacity="0"/>
</linearGradient>
<linearGradient id="paint11_linear" x1="440.03" y1="839.119" x2="465.44" y2="814.129" gradientUnits="userSpaceOnUse">
<stop stop-color="#4A5AED"/>
<stop offset="1" stop-color="#284BFF" stop-opacity="0"/>
</linearGradient>
<linearGradient id="paint12_linear" x1="550.251" y1="898.262" x2="575.661" y2="873.273" gradientUnits="userSpaceOnUse">
<stop stop-color="#4A5AED"/>
<stop offset="1" stop-color="#284BFF" stop-opacity="0"/>
</linearGradient>
<linearGradient id="paint13_linear" x1="621.493" y1="660.346" x2="646.902" y2="635.357" gradientUnits="userSpaceOnUse">
<stop stop-color="#4A5AED"/>
<stop offset="1" stop-color="#284BFF" stop-opacity="0"/>
</linearGradient>
<linearGradient id="paint14_linear" x1="1324.68" y1="644.937" x2="1362.19" y2="608.336" gradientUnits="userSpaceOnUse">
<stop stop-color="#4A5AED"/>
<stop offset="1" stop-color="#284BFF" stop-opacity="0"/>
</linearGradient>
<linearGradient id="paint15_linear" x1="1224.78" y1="757.414" x2="1262.29" y2="720.813" gradientUnits="userSpaceOnUse">
<stop stop-color="#4A5AED"/>
<stop offset="1" stop-color="#284BFF" stop-opacity="0"/>
</linearGradient>
<linearGradient id="paint16_linear" x1="1004.34" y1="489.925" x2="1041.85" y2="453.324" gradientUnits="userSpaceOnUse">
<stop stop-color="#4A5AED"/>
<stop offset="1" stop-color="#284BFF" stop-opacity="0"/>
</linearGradient>
<linearGradient id="paint17_linear" x1="1301.12" y1="518.433" x2="1326.53" y2="493.443" gradientUnits="userSpaceOnUse">
<stop stop-color="#4A5AED"/>
<stop offset="1" stop-color="#284BFF" stop-opacity="0"/>
</linearGradient>
<linearGradient id="paint18_linear" x1="1168.79" y1="593.891" x2="1194.19" y2="568.902" gradientUnits="userSpaceOnUse">
<stop stop-color="#4A5AED"/>
<stop offset="1" stop-color="#284BFF" stop-opacity="0"/>
</linearGradient>
<linearGradient id="paint19_linear" x1="951.03" y1="622.119" x2="976.44" y2="597.129" gradientUnits="userSpaceOnUse">
<stop stop-color="#4A5AED"/>
<stop offset="1" stop-color="#284BFF" stop-opacity="0"/>
</linearGradient>
<linearGradient id="paint20_linear" x1="1061.25" y1="681.262" x2="1086.66" y2="656.273" gradientUnits="userSpaceOnUse">
<stop stop-color="#4A5AED"/>
<stop offset="1" stop-color="#284BFF" stop-opacity="0"/>
</linearGradient>
<linearGradient id="paint21_linear" x1="1132.49" y1="443.346" x2="1157.9" y2="418.357" gradientUnits="userSpaceOnUse">
<stop stop-color="#4A5AED"/>
<stop offset="1" stop-color="#284BFF" stop-opacity="0"/>
</linearGradient>
<linearGradient id="paint22_linear" x1="1835.68" y1="427.937" x2="1873.19" y2="391.336" gradientUnits="userSpaceOnUse">
<stop stop-color="#4A5AED"/>
<stop offset="1" stop-color="#284BFF" stop-opacity="0"/>
</linearGradient>
<linearGradient id="paint23_linear" x1="1735.78" y1="540.414" x2="1773.29" y2="503.813" gradientUnits="userSpaceOnUse">
<stop stop-color="#4A5AED"/>
<stop offset="1" stop-color="#284BFF" stop-opacity="0"/>
</linearGradient>
<linearGradient id="paint24_linear" x1="1515.34" y1="272.925" x2="1552.85" y2="236.324" gradientUnits="userSpaceOnUse">
<stop stop-color="#4A5AED"/>
<stop offset="1" stop-color="#284BFF" stop-opacity="0"/>
</linearGradient>
<linearGradient id="paint25_linear" x1="1812.12" y1="301.433" x2="1837.53" y2="276.443" gradientUnits="userSpaceOnUse">
<stop stop-color="#4A5AED"/>
<stop offset="1" stop-color="#284BFF" stop-opacity="0"/>
</linearGradient>
<linearGradient id="paint26_linear" x1="1679.79" y1="376.891" x2="1705.19" y2="351.902" gradientUnits="userSpaceOnUse">
<stop stop-color="#4A5AED"/>
<stop offset="1" stop-color="#284BFF" stop-opacity="0"/>
</linearGradient>
<linearGradient id="paint27_linear" x1="1462.03" y1="405.119" x2="1487.44" y2="380.129" gradientUnits="userSpaceOnUse">
<stop stop-color="#4A5AED"/>
<stop offset="1" stop-color="#284BFF" stop-opacity="0"/>
</linearGradient>
<linearGradient id="paint28_linear" x1="1572.25" y1="464.262" x2="1597.66" y2="439.273" gradientUnits="userSpaceOnUse">
<stop stop-color="#4A5AED"/>
<stop offset="1" stop-color="#284BFF" stop-opacity="0"/>
</linearGradient>
<linearGradient id="paint29_linear" x1="1643.49" y1="226.346" x2="1668.9" y2="201.357" gradientUnits="userSpaceOnUse">
<stop stop-color="#4A5AED"/>
<stop offset="1" stop-color="#284BFF" stop-opacity="0"/>
</linearGradient>
<linearGradient id="paint30_linear" x1="1298.68" y1="233.937" x2="1336.19" y2="197.336" gradientUnits="userSpaceOnUse">
<stop stop-color="#4A5AED"/>
<stop offset="1" stop-color="#284BFF" stop-opacity="0"/>
</linearGradient>
<linearGradient id="paint31_linear" x1="1198.78" y1="346.414" x2="1236.29" y2="309.813" gradientUnits="userSpaceOnUse">
<stop stop-color="#4A5AED"/>
<stop offset="1" stop-color="#284BFF" stop-opacity="0"/>
</linearGradient>
<linearGradient id="paint32_linear" x1="978.341" y1="78.9251" x2="1015.85" y2="42.3243" gradientUnits="userSpaceOnUse">
<stop stop-color="#4A5AED"/>
<stop offset="1" stop-color="#284BFF" stop-opacity="0"/>
</linearGradient>
<linearGradient id="paint33_linear" x1="1275.12" y1="107.433" x2="1300.53" y2="82.4431" gradientUnits="userSpaceOnUse">
<stop stop-color="#4A5AED"/>
<stop offset="1" stop-color="#284BFF" stop-opacity="0"/>
</linearGradient>
<linearGradient id="paint34_linear" x1="1142.79" y1="182.891" x2="1168.19" y2="157.902" gradientUnits="userSpaceOnUse">
<stop stop-color="#4A5AED"/>
<stop offset="1" stop-color="#284BFF" stop-opacity="0"/>
</linearGradient>
<linearGradient id="paint35_linear" x1="925.03" y1="211.119" x2="950.44" y2="186.129" gradientUnits="userSpaceOnUse">
<stop stop-color="#4A5AED"/>
<stop offset="1" stop-color="#284BFF" stop-opacity="0"/>
</linearGradient>
<linearGradient id="paint36_linear" x1="1035.25" y1="270.262" x2="1060.66" y2="245.273" gradientUnits="userSpaceOnUse">
<stop stop-color="#4A5AED"/>
<stop offset="1" stop-color="#284BFF" stop-opacity="0"/>
</linearGradient>
<linearGradient id="paint37_linear" x1="1106.49" y1="32.3458" x2="1131.9" y2="7.35667" gradientUnits="userSpaceOnUse">
<stop stop-color="#4A5AED"/>
<stop offset="1" stop-color="#284BFF" stop-opacity="0"/>
</linearGradient>
<linearGradient id="paint38_linear" x1="1324.68" y1="1086.94" x2="1362.19" y2="1050.34" gradientUnits="userSpaceOnUse">
<stop stop-color="#4A5AED"/>
<stop offset="1" stop-color="#284BFF" stop-opacity="0"/>
</linearGradient>
<linearGradient id="paint39_linear" x1="1224.78" y1="1199.41" x2="1262.29" y2="1162.81" gradientUnits="userSpaceOnUse">
<stop stop-color="#4A5AED"/>
<stop offset="1" stop-color="#284BFF" stop-opacity="0"/>
</linearGradient>
<linearGradient id="paint40_linear" x1="1004.34" y1="931.925" x2="1041.85" y2="895.324" gradientUnits="userSpaceOnUse">
<stop stop-color="#4A5AED"/>
<stop offset="1" stop-color="#284BFF" stop-opacity="0"/>
</linearGradient>
<linearGradient id="paint41_linear" x1="1301.12" y1="960.433" x2="1326.53" y2="935.443" gradientUnits="userSpaceOnUse">
<stop stop-color="#4A5AED"/>
<stop offset="1" stop-color="#284BFF" stop-opacity="0"/>
</linearGradient>
<linearGradient id="paint42_linear" x1="1168.79" y1="1035.89" x2="1194.19" y2="1010.9" gradientUnits="userSpaceOnUse">
<stop stop-color="#4A5AED"/>
<stop offset="1" stop-color="#284BFF" stop-opacity="0"/>
</linearGradient>
<linearGradient id="paint43_linear" x1="951.03" y1="1064.12" x2="976.44" y2="1039.13" gradientUnits="userSpaceOnUse">
<stop stop-color="#4A5AED"/>
<stop offset="1" stop-color="#284BFF" stop-opacity="0"/>
</linearGradient>
<linearGradient id="paint44_linear" x1="1061.25" y1="1123.26" x2="1086.66" y2="1098.27" gradientUnits="userSpaceOnUse">
<stop stop-color="#4A5AED"/>
<stop offset="1" stop-color="#284BFF" stop-opacity="0"/>
</linearGradient>
<linearGradient id="paint45_linear" x1="1132.49" y1="885.346" x2="1157.9" y2="860.357" gradientUnits="userSpaceOnUse">
<stop stop-color="#4A5AED"/>
<stop offset="1" stop-color="#284BFF" stop-opacity="0"/>
</linearGradient>
<linearGradient id="paint46_linear" x1="1945.68" y1="905.937" x2="1983.19" y2="869.336" gradientUnits="userSpaceOnUse">
<stop stop-color="#4A5AED"/>
<stop offset="1" stop-color="#284BFF" stop-opacity="0"/>
</linearGradient>
<linearGradient id="paint47_linear" x1="1845.78" y1="1018.41" x2="1883.29" y2="981.813" gradientUnits="userSpaceOnUse">
<stop stop-color="#4A5AED"/>
<stop offset="1" stop-color="#284BFF" stop-opacity="0"/>
</linearGradient>
<linearGradient id="paint48_linear" x1="1625.34" y1="750.925" x2="1662.85" y2="714.324" gradientUnits="userSpaceOnUse">
<stop stop-color="#4A5AED"/>
<stop offset="1" stop-color="#284BFF" stop-opacity="0"/>
</linearGradient>
<linearGradient id="paint49_linear" x1="1922.12" y1="779.433" x2="1947.53" y2="754.443" gradientUnits="userSpaceOnUse">
<stop stop-color="#4A5AED"/>
<stop offset="1" stop-color="#284BFF" stop-opacity="0"/>
</linearGradient>
<linearGradient id="paint50_linear" x1="1789.79" y1="854.891" x2="1815.19" y2="829.902" gradientUnits="userSpaceOnUse">
<stop stop-color="#4A5AED"/>
<stop offset="1" stop-color="#284BFF" stop-opacity="0"/>
</linearGradient>
<linearGradient id="paint51_linear" x1="1572.03" y1="883.119" x2="1597.44" y2="858.129" gradientUnits="userSpaceOnUse">
<stop stop-color="#4A5AED"/>
<stop offset="1" stop-color="#284BFF" stop-opacity="0"/>
</linearGradient>
<linearGradient id="paint52_linear" x1="1682.25" y1="942.262" x2="1707.66" y2="917.273" gradientUnits="userSpaceOnUse">
<stop stop-color="#4A5AED"/>
<stop offset="1" stop-color="#284BFF" stop-opacity="0"/>
</linearGradient>
<linearGradient id="paint53_linear" x1="1753.49" y1="704.346" x2="1778.9" y2="679.357" gradientUnits="userSpaceOnUse">
<stop stop-color="#4A5AED"/>
<stop offset="1" stop-color="#284BFF" stop-opacity="0"/>
</linearGradient>
<linearGradient id="paint54_linear" x1="372.684" y1="1096.94" x2="410.194" y2="1060.34" gradientUnits="userSpaceOnUse">
<stop stop-color="#4A5AED"/>
<stop offset="1" stop-color="#284BFF" stop-opacity="0"/>
</linearGradient>
<linearGradient id="paint55_linear" x1="272.783" y1="1209.41" x2="310.292" y2="1172.81" gradientUnits="userSpaceOnUse">
<stop stop-color="#4A5AED"/>
<stop offset="1" stop-color="#284BFF" stop-opacity="0"/>
</linearGradient>
<linearGradient id="paint56_linear" x1="52.3406" y1="941.925" x2="89.8499" y2="905.324" gradientUnits="userSpaceOnUse">
<stop stop-color="#4A5AED"/>
<stop offset="1" stop-color="#284BFF" stop-opacity="0"/>
</linearGradient>
<linearGradient id="paint57_linear" x1="349.121" y1="970.433" x2="374.53" y2="945.443" gradientUnits="userSpaceOnUse">
<stop stop-color="#4A5AED"/>
<stop offset="1" stop-color="#284BFF" stop-opacity="0"/>
</linearGradient>
<linearGradient id="paint58_linear" x1="216.785" y1="1045.89" x2="242.194" y2="1020.9" gradientUnits="userSpaceOnUse">
<stop stop-color="#4A5AED"/>
<stop offset="1" stop-color="#284BFF" stop-opacity="0"/>
</linearGradient>
<linearGradient id="paint59_linear" x1="-0.969514" y1="1074.12" x2="24.4397" y2="1049.13" gradientUnits="userSpaceOnUse">
<stop stop-color="#4A5AED"/>
<stop offset="1" stop-color="#284BFF" stop-opacity="0"/>
</linearGradient>
<linearGradient id="paint60_linear" x1="109.251" y1="1133.26" x2="134.661" y2="1108.27" gradientUnits="userSpaceOnUse">
<stop stop-color="#4A5AED"/>
<stop offset="1" stop-color="#284BFF" stop-opacity="0"/>
</linearGradient>
<linearGradient id="paint61_linear" x1="180.493" y1="895.346" x2="205.902" y2="870.357" gradientUnits="userSpaceOnUse">
<stop stop-color="#4A5AED"/>
<stop offset="1" stop-color="#284BFF" stop-opacity="0"/>
</linearGradient>
<clipPath id="clip0">
<rect x="365" y="107" width="422" height="341" fill="white"/>
</clipPath>
</defs>
</svg>
